<?xml version="1.0" encoding="UTF-8" standalone="no"?>
<!DOCTYPE svg PUBLIC "-//W3C//DTD SVG 1.1//EN"
 "http://www.w3.org/Graphics/SVG/1.1/DTD/svg11.dtd">
<!-- Generated by graphviz version 2.38.0 (20140413.2041)
 -->
<!-- Title: G Pages: 1 -->
<svg width="561pt" height="665pt"
 viewBox="0.00 0.00 561.46 665.40" xmlns="http://www.w3.org/2000/svg" xmlns:xlink="http://www.w3.org/1999/xlink">
<g id="graph0" class="graph" transform="scale(1 1) rotate(0) translate(4 661.4)">
<title>G</title>
<polygon fill="white" stroke="none" points="-4,4 -4,-661.4 557.463,-661.4 557.463,4 -4,4"/>
<!-- owner -->
<g id="node1" class="node"><title>owner</title>
<path fill="none" stroke="black" stroke-width="3" d="M129.355,-657.4C129.355,-657.4 12.2147,-657.4 12.2147,-657.4 6.21468,-657.4 0.214679,-651.4 0.214679,-645.4 0.214679,-645.4 0.214679,-587.4 0.214679,-587.4 0.214679,-581.4 6.21468,-575.4 12.2147,-575.4 12.2147,-575.4 129.355,-575.4 129.355,-575.4 135.355,-575.4 141.355,-581.4 141.355,-587.4 141.355,-587.4 141.355,-645.4 141.355,-645.4 141.355,-651.4 135.355,-657.4 129.355,-657.4"/>
<text text-anchor="middle" x="70.7847" y="-642.2" font-family="Times,serif" font-size="14.00">Krajské předsednictvo</text>
<text text-anchor="middle" x="70.7847" y="-612.2" font-family="Times,serif" font-size="14.00">Přijímání členů</text>
<text text-anchor="middle" x="70.7847" y="-582.2" font-family="Times,serif" font-size="14.00">v 2.0</text>
</g>
<!-- start -->
<g id="node2" class="node"><title>start</title>
<ellipse fill="black" stroke="black" cx="166.785" cy="-616.4" rx="7.2" ry="7.2"/>
</g>
<!-- elektronicka_prihlaska -->
<g id="node3" class="node"><title>elektronicka_prihlaska</title>
<ellipse fill="none" stroke="black" cx="166.785" cy="-520.4" rx="98.5412" ry="18"/>
<text text-anchor="middle" x="166.785" y="-516.2" font-family="Times,serif" font-size="14.00">Přijetí přihlášky na webu</text>
</g>
<!-- start&#45;&gt;elektronicka_prihlaska -->
<g id="edge1" class="edge"><title>start&#45;&gt;elektronicka_prihlaska</title>
<path fill="none" stroke="black" d="M166.785,-608.939C166.785,-596.718 166.785,-569.572 166.785,-548.727"/>
<polygon fill="black" stroke="black" points="170.285,-548.513 166.785,-538.513 163.285,-548.513 170.285,-548.513"/>
</g>
<!-- pohovor -->
<g id="node4" class="node"><title>pohovor</title>
<ellipse fill="none" stroke="black" cx="166.785" cy="-447.4" rx="147.743" ry="18"/>
<text text-anchor="middle" x="166.785" y="-443.2" font-family="Times,serif" font-size="14.00">Seznamovací schůzka s koordinátorem</text>
</g>
<!-- elektronicka_prihlaska&#45;&gt;pohovor -->
<g id="edge2" class="edge"><title>elektronicka_prihlaska&#45;&gt;pohovor</title>
<path fill="none" stroke="black" d="M166.785,-502.213C166.785,-494.189 166.785,-484.447 166.785,-475.469"/>
<polygon fill="black" stroke="black" points="170.285,-475.429 166.785,-465.429 163.285,-475.429 170.285,-475.429"/>
</g>
<!-- doporuceni -->
<g id="node5" class="node"><title>doporuceni</title>
<polygon fill="none" stroke="black" points="140.785,-319.4 9.81188,-301.4 140.785,-283.4 271.757,-301.4 140.785,-319.4"/>
<text text-anchor="middle" x="140.785" y="-297.2" font-family="Times,serif" font-size="14.00">Doporučení k ne/přijetí</text>
</g>
<!-- pohovor&#45;&gt;doporuceni -->
<g id="edge3" class="edge"><title>pohovor&#45;&gt;doporuceni</title>
<path fill="none" stroke="black" d="M163.7,-429.316C159.219,-404.5 150.87,-358.257 145.582,-328.969"/>
<polygon fill="black" stroke="black" points="149.006,-328.236 143.785,-319.017 142.118,-329.48 149.006,-328.236"/>
</g>
<!-- papirova_prihlaska -->
<g id="node12" class="node"><title>papirova_prihlaska</title>
<ellipse fill="none" stroke="black" cx="412.785" cy="-374.4" rx="129.919" ry="18"/>
<text text-anchor="middle" x="412.785" y="-370.2" font-family="Times,serif" font-size="14.00">Přijetí listinné přihlášky kanceláří</text>
</g>
<!-- pohovor&#45;&gt;papirova_prihlaska -->
<g id="edge12" class="edge"><title>pohovor&#45;&gt;papirova_prihlaska</title>
<path fill="none" stroke="black" d="M221.38,-430.643C259.223,-419.721 309.732,-405.143 349.362,-393.705"/>
<polygon fill="black" stroke="black" points="350.551,-397.005 359.188,-390.869 348.61,-390.279 350.551,-397.005"/>
</g>
<!-- projednani -->
<g id="node6" class="node"><title>projednani</title>
<ellipse fill="none" stroke="black" cx="263.785" cy="-215.4" rx="103.86" ry="18"/>
<text text-anchor="middle" x="263.785" y="-211.2" font-family="Times,serif" font-size="14.00">Projednání na jednání KrP</text>
</g>
<!-- doporuceni&#45;&gt;projednani -->
<g id="edge4" class="edge"><title>doporuceni&#45;&gt;projednani</title>
<path fill="none" stroke="black" d="M161.65,-286.151C180.649,-273.175 209.014,-253.804 231.034,-238.766"/>
<polygon fill="black" stroke="black" points="233.147,-241.562 239.431,-233.032 229.199,-235.781 233.147,-241.562"/>
<text text-anchor="middle" x="241.274" y="-254.2" font-family="Times,serif" font-size="14.00">doporučuje</text>
</g>
<!-- pozvani -->
<g id="node7" class="node"><title>pozvani</title>
<ellipse fill="none" stroke="black" cx="125.785" cy="-142.4" rx="123.621" ry="18"/>
<text text-anchor="middle" x="125.785" y="-138.2" font-family="Times,serif" font-size="14.00">Pozvání zájemce na jedníní KrP</text>
</g>
<!-- doporuceni&#45;&gt;pozvani -->
<g id="edge5" class="edge"><title>doporuceni&#45;&gt;pozvani</title>
<path fill="none" stroke="black" d="M119.647,-286.152C103.915,-274.17 83.6603,-255.483 74.5913,-233.4 68.5132,-218.599 68.6661,-212.262 74.5913,-197.4 79.1055,-186.077 87.247,-175.765 95.7285,-167.256"/>
<polygon fill="black" stroke="black" points="98.2856,-169.657 103.187,-160.264 93.4978,-164.55 98.2856,-169.657"/>
<text text-anchor="middle" x="112.881" y="-211.2" font-family="Times,serif" font-size="14.00">nedoporučuje</text>
</g>
<!-- projednani&#45;&gt;pozvani -->
<g id="edge7" class="edge"><title>projednani&#45;&gt;pozvani</title>
<path fill="none" stroke="black" d="M227.074,-198.466C206.634,-188.539 181.397,-175.643 161.176,-164.826"/>
<polygon fill="black" stroke="black" points="162.735,-161.691 152.273,-160.021 159.41,-167.851 162.735,-161.691"/>
</g>
<!-- usneseni -->
<g id="node8" class="node"><title>usneseni</title>
<ellipse fill="none" stroke="black" cx="366.785" cy="-142.4" rx="99.3621" ry="18"/>
<text text-anchor="middle" x="366.785" y="-138.2" font-family="Times,serif" font-size="14.00">Usnesení KrP o ne/přijetí</text>
</g>
<!-- projednani&#45;&gt;usneseni -->
<g id="edge6" class="edge"><title>projednani&#45;&gt;usneseni</title>
<path fill="none" stroke="black" d="M287.934,-197.754C301.752,-188.229 319.27,-176.153 334.284,-165.804"/>
<polygon fill="black" stroke="black" points="336.54,-168.499 342.787,-159.942 332.567,-162.736 336.54,-168.499"/>
</g>
<!-- pozvani&#45;&gt;projednani -->
<g id="edge8" class="edge"><title>pozvani&#45;&gt;projednani</title>
<path fill="none" stroke="black" d="M163.157,-159.655C183.598,-169.597 208.685,-182.425 228.748,-193.164"/>
<polygon fill="black" stroke="black" points="227.117,-196.26 237.579,-197.933 230.443,-190.101 227.117,-196.26"/>
</g>
<!-- vyznaceni -->
<g id="node9" class="node"><title>vyznaceni</title>
<ellipse fill="none" stroke="black" cx="366.785" cy="-69.4" rx="129.876" ry="18"/>
<text text-anchor="middle" x="366.785" y="-65.2" font-family="Times,serif" font-size="14.00">Vyznačení v republikové databázi</text>
</g>
<!-- usneseni&#45;&gt;vyznaceni -->
<g id="edge9" class="edge"><title>usneseni&#45;&gt;vyznaceni</title>
<path fill="none" stroke="black" d="M366.785,-124.213C366.785,-116.189 366.785,-106.447 366.785,-97.4691"/>
<polygon fill="black" stroke="black" points="370.285,-97.4288 366.785,-87.4288 363.285,-97.4289 370.285,-97.4288"/>
</g>
<!-- end -->
<g id="node10" class="node"><title>end</title>
<ellipse fill="black" stroke="black" cx="366.785" cy="-7.2" rx="7.2" ry="7.2"/>
</g>
<!-- vyznaceni&#45;&gt;end -->
<g id="edge10" class="edge"><title>vyznaceni&#45;&gt;end</title>
<path fill="none" stroke="black" d="M366.785,-51.3101C366.785,-42.9935 366.785,-33.036 366.785,-24.7871"/>
<polygon fill="black" stroke="black" points="370.285,-24.6139 366.785,-14.6139 363.285,-24.614 370.285,-24.6139"/>
</g>
<!-- scanovani -->
<g id="node11" class="node"><title>scanovani</title>
<ellipse fill="none" stroke="black" cx="421.785" cy="-301.4" rx="131.857" ry="18"/>
<text text-anchor="middle" x="421.785" y="-297.2" font-family="Times,serif" font-size="14.00">Naskenování přihlášky do registru</text>
</g>
<!-- scanovani&#45;&gt;projednani -->
<g id="edge11" class="edge"><title>scanovani&#45;&gt;projednani</title>
<path fill="none" stroke="black" d="M390.569,-283.804C365.63,-270.546 330.514,-251.876 303.561,-237.547"/>
<polygon fill="black" stroke="black" points="304.871,-234.279 294.398,-232.675 301.585,-240.46 304.871,-234.279"/>
</g>
<!-- archivace -->
<g id="node14" class="node"><title>archivace</title>
<ellipse fill="none" stroke="black" cx="466.785" cy="-215.4" rx="81.6255" ry="18"/>
<text text-anchor="middle" x="466.785" y="-211.2" font-family="Times,serif" font-size="14.00">Archivace přihlášky</text>
</g>
<!-- scanovani&#45;&gt;archivace -->
<g id="edge15" class="edge"><title>scanovani&#45;&gt;archivace</title>
<path fill="none" stroke="black" d="M430.891,-283.401C437.174,-271.674 445.646,-255.858 452.782,-242.538"/>
<polygon fill="black" stroke="black" points="456.055,-243.841 457.692,-233.373 449.884,-240.535 456.055,-243.841"/>
</g>
<!-- papirova_prihlaska&#45;&gt;scanovani -->
<g id="edge14" class="edge"><title>papirova_prihlaska&#45;&gt;scanovani</title>
<path fill="none" stroke="black" d="M414.963,-356.213C415.98,-348.189 417.215,-338.447 418.353,-329.469"/>
<polygon fill="black" stroke="black" points="421.841,-329.79 419.626,-319.429 414.896,-328.909 421.841,-329.79"/>
</g>
<!-- posta -->
<g id="node13" class="node"><title>posta</title>
<ellipse fill="none" stroke="black" cx="412.785" cy="-447.4" rx="68.6146" ry="18"/>
<text text-anchor="middle" x="412.785" y="-443.2" font-family="Times,serif" font-size="14.00">Doručení poštou</text>
</g>
<!-- posta&#45;&gt;papirova_prihlaska -->
<g id="edge13" class="edge"><title>posta&#45;&gt;papirova_prihlaska</title>
<path fill="none" stroke="black" d="M412.785,-429.213C412.785,-421.189 412.785,-411.447 412.785,-402.469"/>
<polygon fill="black" stroke="black" points="416.285,-402.429 412.785,-392.429 409.285,-402.429 416.285,-402.429"/>
</g>
</g>
</svg>
