<?xml version="1.0" encoding="UTF-8" standalone="no"?>
<!DOCTYPE svg PUBLIC "-//W3C//DTD SVG 1.1//EN"
 "http://www.w3.org/Graphics/SVG/1.1/DTD/svg11.dtd">
<!-- Generated by graphviz version 2.40.1 (20161225.0304)
 -->
<!-- Title: G Pages: 1 -->
<svg width="576pt" height="346pt"
 viewBox="0.00 0.00 576.00 345.96" xmlns="http://www.w3.org/2000/svg" xmlns:xlink="http://www.w3.org/1999/xlink">
<g id="graph0" class="graph" transform="scale(.6628 .6628) rotate(0) translate(4 518)">
<title>G</title>
<polygon fill="#ffffff" stroke="transparent" points="-4,4 -4,-518 865.0854,-518 865.0854,4 -4,4"/>
<!-- owner -->
<g id="node1" class="node">
<title>owner</title>
<path fill="none" stroke="#00bfff" stroke-width="3" d="M328.553,-514C328.553,-514 244.3659,-514 244.3659,-514 238.3659,-514 232.3659,-508 232.3659,-502 232.3659,-502 232.3659,-444 232.3659,-444 232.3659,-438 238.3659,-432 244.3659,-432 244.3659,-432 328.553,-432 328.553,-432 334.553,-432 340.553,-438 340.553,-444 340.553,-444 340.553,-502 340.553,-502 340.553,-508 334.553,-514 328.553,-514"/>
<text text-anchor="middle" x="286.4595" y="-498.8" font-family="Helvetica-Outline" font-size="14.00" fill="#000000">Registr</text>
<text text-anchor="middle" x="286.4595" y="-468.8" font-family="Helvetica-Outline" font-size="14.00" fill="#000000">Přijímání členů</text>
<text text-anchor="middle" x="286.4595" y="-438.8" font-family="Helvetica-Outline" font-size="14.00" fill="#000000">v 2.0</text>
</g>
<!-- start -->
<g id="node2" class="node">
<title>start</title>
<ellipse fill="#00bfff" stroke="#00bfff" cx="369.4595" cy="-473" rx="10.8" ry="10.8"/>
</g>
<!-- zadost_o_clenstvi -->
<g id="node3" class="node">
<title>zadost_o_clenstvi</title>
<polygon fill="#00bfff" stroke="#00bfff" points="500.0894,-396 238.8296,-396 238.8296,-360 500.0894,-360 500.0894,-396"/>
<text text-anchor="middle" x="369.4595" y="-373.8" font-family="Helvetica-Outline" font-size="14.00" fill="#000000">Na webu vyplněná přihláška ke členství</text>
</g>
<!-- start&#45;&gt;zadost_o_clenstvi -->
<g id="edge1" class="edge">
<title>start&#45;&gt;zadost_o_clenstvi</title>
<path fill="none" stroke="#000000" d="M369.4595,-462.1023C369.4595,-448.5949 369.4595,-425.0678 369.4595,-406.3263"/>
<polygon fill="#000000" stroke="#000000" points="372.9596,-406.2291 369.4595,-396.2291 365.9596,-406.2292 372.9596,-406.2291"/>
</g>
<!-- platba_prispevku_zajemce -->
<g id="node4" class="node">
<title>platba_prispevku_zajemce</title>
<polygon fill="#00bfff" stroke="#00bfff" points="454.5142,-324 284.4048,-324 284.4048,-288 454.5142,-288 454.5142,-324"/>
<text text-anchor="middle" x="369.4595" y="-301.8" font-family="Helvetica-Outline" font-size="14.00" fill="#000000">Přijatý členský příspěvek</text>
</g>
<!-- zadost_o_clenstvi&#45;&gt;platba_prispevku_zajemce -->
<g id="edge2" class="edge">
<title>zadost_o_clenstvi&#45;&gt;platba_prispevku_zajemce</title>
<path fill="none" stroke="#000000" d="M369.4595,-359.8314C369.4595,-352.131 369.4595,-342.9743 369.4595,-334.4166"/>
<polygon fill="#000000" stroke="#000000" points="372.9596,-334.4132 369.4595,-324.4133 365.9596,-334.4133 372.9596,-334.4132"/>
</g>
<!-- priznivec_zajemce -->
<g id="node5" class="node">
<title>priznivec_zajemce</title>
<polygon fill="#ee8262" stroke="#ee8262" points="406.033,-252 332.886,-252 332.886,-216 406.033,-216 406.033,-252"/>
<text text-anchor="middle" x="369.4595" y="-229.8" font-family="Helvetica-Outline" font-size="14.00" fill="#000000">Příznivec</text>
</g>
<!-- platba_prispevku_zajemce&#45;&gt;priznivec_zajemce -->
<g id="edge3" class="edge">
<title>platba_prispevku_zajemce&#45;&gt;priznivec_zajemce</title>
<path fill="none" stroke="#000000" d="M369.4595,-287.8314C369.4595,-280.131 369.4595,-270.9743 369.4595,-262.4166"/>
<polygon fill="#000000" stroke="#000000" points="372.9596,-262.4132 369.4595,-252.4133 365.9596,-262.4133 372.9596,-262.4132"/>
</g>
<!-- prijeti -->
<g id="node6" class="node">
<title>prijeti</title>
<polygon fill="#00bfff" stroke="#00bfff" points="144.8784,-180 .0405,-180 .0405,-144 144.8784,-144 144.8784,-180"/>
<text text-anchor="middle" x="72.4595" y="-157.8" font-family="Helvetica-Outline" font-size="14.00" fill="#000000">KrP schválil za člena</text>
</g>
<!-- priznivec_zajemce&#45;&gt;prijeti -->
<g id="edge4" class="edge">
<title>priznivec_zajemce&#45;&gt;prijeti</title>
<path fill="none" stroke="#000000" d="M332.7436,-225.0992C288.6564,-214.4114 213.3686,-196.1598 155.0726,-182.0274"/>
<polygon fill="#000000" stroke="#000000" points="155.6781,-178.5729 145.135,-179.6183 154.0289,-185.3759 155.6781,-178.5729"/>
</g>
<!-- neprijeti_zajemce -->
<g id="node11" class="node">
<title>neprijeti_zajemce</title>
<polygon fill="#00bfff" stroke="#00bfff" points="718.9175,-180 614.0014,-180 614.0014,-144 718.9175,-144 718.9175,-180"/>
<text text-anchor="middle" x="666.4595" y="-157.8" font-family="Helvetica-Outline" font-size="14.00" fill="#000000">KrP neschválil</text>
</g>
<!-- priznivec_zajemce&#45;&gt;neprijeti_zajemce -->
<g id="edge9" class="edge">
<title>priznivec_zajemce&#45;&gt;neprijeti_zajemce</title>
<path fill="none" stroke="#000000" stroke-dasharray="1,5" d="M406.4222,-226.2849C451.0255,-216.8121 528.4979,-199.8405 603.8161,-180.3595"/>
<polygon fill="#000000" stroke="#000000" points="605.1502,-183.6288 613.9448,-177.7208 603.3854,-176.8549 605.1502,-183.6288"/>
</g>
<!-- splneni_podminek -->
<g id="node7" class="node">
<title>splneni_podminek</title>
<polygon fill="#000000" stroke="#00bfff" points="229.4595,-83 229.4595,-97 265.4595,-97 265.4595,-83 229.4595,-83"/>
<text text-anchor="middle" x="235.4043" y="-85.8" font-family="Helvetica-Outline" font-size="14.00" fill="#000000"> </text>
<polyline fill="none" stroke="#00bfff" points="241.3491,-83 241.3491,-97 "/>
<text text-anchor="middle" x="247.2939" y="-85.8" font-family="Helvetica-Outline" font-size="14.00" fill="#000000"> </text>
<polyline fill="none" stroke="#00bfff" points="253.2388,-83 253.2388,-97 "/>
<text text-anchor="middle" x="259.1836" y="-85.8" font-family="Helvetica-Outline" font-size="14.00" fill="#000000"> </text>
</g>
<!-- prijeti&#45;&gt;splneni_podminek -->
<g id="edge5" class="edge">
<title>prijeti&#45;&gt;splneni_podminek</title>
<path fill="none" stroke="#000000" d="M116.6194,-143.8314C149.4448,-130.326 193.1573,-112.3415 220.8097,-100.9645"/>
<polygon fill="#000000" stroke="#000000" points="222.3048,-104.1341 230.2209,-97.0924 219.6413,-97.6606 222.3048,-104.1341"/>
</g>
<!-- clen -->
<g id="node8" class="node">
<title>clen</title>
<polygon fill="#ee8262" stroke="#ee8262" points="290.5005,-36 204.4184,-36 204.4184,0 290.5005,0 290.5005,-36"/>
<text text-anchor="middle" x="247.4595" y="-13.8" font-family="Helvetica-Outline" font-size="14.00" fill="#000000">Řádný člen</text>
</g>
<!-- splneni_podminek&#45;&gt;clen -->
<g id="edge6" class="edge">
<title>splneni_podminek&#45;&gt;clen</title>
<path fill="none" stroke="#000000" d="M247.4595,-82.8331C247.4595,-74.3009 247.4595,-59.5328 247.4595,-46.2446"/>
<polygon fill="#000000" stroke="#000000" points="250.9596,-46.0525 247.4595,-36.0525 243.9596,-46.0525 250.9596,-46.0525"/>
</g>
<!-- platba_prispevku -->
<g id="node9" class="node">
<title>platba_prispevku</title>
<polygon fill="#00bfff" stroke="#00bfff" points="332.5142,-180 162.4048,-180 162.4048,-144 332.5142,-144 332.5142,-180"/>
<text text-anchor="middle" x="247.4595" y="-157.8" font-family="Helvetica-Outline" font-size="14.00" fill="#000000">Přijatý členský příspěvek</text>
</g>
<!-- platba_prispevku&#45;&gt;splneni_podminek -->
<g id="edge7" class="edge">
<title>platba_prispevku&#45;&gt;splneni_podminek</title>
<path fill="none" stroke="#000000" d="M247.4595,-143.8314C247.4595,-132.5769 247.4595,-118.2119 247.4595,-107.1523"/>
<polygon fill="#000000" stroke="#000000" points="250.9596,-107.0924 247.4595,-97.0924 243.9596,-107.0925 250.9596,-107.0924"/>
</g>
<!-- prijata_prihlaska -->
<g id="node10" class="node">
<title>prijata_prihlaska</title>
<polygon fill="#00bfff" stroke="#00bfff" points="596.0448,-180 350.8742,-180 350.8742,-144 596.0448,-144 596.0448,-180"/>
<text text-anchor="middle" x="473.4595" y="-157.8" font-family="Helvetica-Outline" font-size="14.00" fill="#000000">Doručena přihláška v listinné podobě</text>
</g>
<!-- prijata_prihlaska&#45;&gt;splneni_podminek -->
<g id="edge8" class="edge">
<title>prijata_prihlaska&#45;&gt;splneni_podminek</title>
<path fill="none" stroke="#000000" d="M416.7218,-143.9243C371.4997,-129.5172 310.1373,-109.9682 275.0756,-98.7981"/>
<polygon fill="#000000" stroke="#000000" points="276.0928,-95.4489 265.5022,-95.7481 273.9679,-102.1186 276.0928,-95.4489"/>
</g>
<!-- nezaplaceny_priznivec -->
<g id="node12" class="node">
<title>nezaplaceny_priznivec</title>
<polygon fill="#ee8262" stroke="#ee8262" points="647.8072,-108 491.1117,-108 491.1117,-72 647.8072,-72 647.8072,-108"/>
<text text-anchor="middle" x="569.4595" y="-85.8" font-family="Helvetica-Outline" font-size="14.00" fill="#000000">Nezaplacený příznivec</text>
</g>
<!-- neprijeti_zajemce&#45;&gt;nezaplaceny_priznivec -->
<g id="edge10" class="edge">
<title>neprijeti_zajemce&#45;&gt;nezaplaceny_priznivec</title>
<path fill="none" stroke="#000000" d="M641.9823,-143.8314C629.92,-134.8779 615.2055,-123.9558 602.1909,-114.2955"/>
<polygon fill="#000000" stroke="#000000" points="604.0446,-111.3127 593.9288,-108.1628 599.8725,-116.9335 604.0446,-111.3127"/>
</g>
<!-- vraceni_prispevku -->
<g id="node13" class="node">
<title>vraceni_prispevku</title>
<polygon fill="#00bfff" stroke="#00bfff" points="861.2116,-108 665.7074,-108 665.7074,-72 861.2116,-72 861.2116,-108"/>
<text text-anchor="middle" x="763.4595" y="-85.8" font-family="Helvetica-Outline" font-size="14.00" fill="#000000">Vrácení členského příspěvku</text>
</g>
<!-- neprijeti_zajemce&#45;&gt;vraceni_prispevku -->
<g id="edge11" class="edge">
<title>neprijeti_zajemce&#45;&gt;vraceni_prispevku</title>
<path fill="none" stroke="#000000" d="M690.9367,-143.8314C702.9989,-134.8779 717.7134,-123.9558 730.7281,-114.2955"/>
<polygon fill="#000000" stroke="#000000" points="733.0465,-116.9335 738.9901,-108.1628 728.8743,-111.3127 733.0465,-116.9335"/>
</g>
</g>
</svg>
