<?xml version="1.0" encoding="UTF-8" standalone="no"?>
<!DOCTYPE svg PUBLIC "-//W3C//DTD SVG 1.1//EN"
 "http://www.w3.org/Graphics/SVG/1.1/DTD/svg11.dtd">
<!-- Generated by graphviz version 2.40.1 (20161225.0304)
 -->
<!-- Title: G Pages: 1 -->
<svg width="301pt" height="296pt"
 viewBox="0.00 0.00 301.40 296.00" xmlns="http://www.w3.org/2000/svg" xmlns:xlink="http://www.w3.org/1999/xlink">
<g id="graph0" class="graph" transform="scale(1 1) rotate(0) translate(4 292)">
<title>G</title>
<polygon fill="#ffffff" stroke="transparent" points="-4,4 -4,-292 297.4028,-292 297.4028,4 -4,4"/>
<!-- owner -->
<g id="node1" class="node">
<title>owner</title>
<path fill="none" stroke="#00bfff" stroke-width="3" d="M158.1026,-288C158.1026,-288 11.9658,-288 11.9658,-288 5.9658,-288 -.0342,-282 -.0342,-276 -.0342,-276 -.0342,-228 -.0342,-228 -.0342,-222 5.9658,-216 11.9658,-216 11.9658,-216 158.1026,-216 158.1026,-216 164.1026,-216 170.1026,-222 170.1026,-228 170.1026,-228 170.1026,-276 170.1026,-276 170.1026,-282 164.1026,-288 158.1026,-288"/>
<text text-anchor="middle" x="85.0342" y="-247.8" font-family="Helvetica-Outline" font-size="14.00" fill="#000000">#2 : Registrace příznivce</text>
</g>
<!-- start -->
<g id="node2" class="node">
<title>start</title>
<ellipse fill="#00bfff" stroke="#00bfff" cx="199.0342" cy="-252" rx="10.8" ry="10.8"/>
</g>
<!-- nezaplaceny_priznivec -->
<g id="node3" class="node">
<title>nezaplaceny_priznivec</title>
<polygon fill="#ee8262" stroke="#ee8262" points="293.2717,-180 104.7967,-180 104.7967,-144 293.2717,-144 293.2717,-180"/>
<text text-anchor="middle" x="199.0342" y="-157.8" font-family="Helvetica-Outline" font-size="14.00" fill="#000000">Nově registrovaný příznivec</text>
</g>
<!-- start&#45;&gt;nezaplaceny_priznivec -->
<g id="edge1" class="edge">
<title>start&#45;&gt;nezaplaceny_priznivec</title>
<path fill="none" stroke="#000000" d="M199.0342,-240.9642C199.0342,-228.4477 199.0342,-207.55 199.0342,-190.3962"/>
<polygon fill="#000000" stroke="#000000" points="202.5343,-190.3077 199.0342,-180.3078 195.5343,-190.3078 202.5343,-190.3077"/>
</g>
<!-- prijeti_daru -->
<g id="node4" class="node">
<title>prijeti_daru</title>
<polygon fill="#00bfff" stroke="#00bfff" points="278.4272,-108 119.6411,-108 119.6411,-72 278.4272,-72 278.4272,-108"/>
<text text-anchor="middle" x="199.0342" y="-85.8" font-family="Helvetica-Outline" font-size="14.00" fill="#000000">Přijatý dar od příznivce</text>
</g>
<!-- nezaplaceny_priznivec&#45;&gt;prijeti_daru -->
<g id="edge2" class="edge">
<title>nezaplaceny_priznivec&#45;&gt;prijeti_daru</title>
<path fill="none" stroke="#000000" d="M199.0342,-143.8314C199.0342,-136.131 199.0342,-126.9743 199.0342,-118.4166"/>
<polygon fill="#000000" stroke="#000000" points="202.5343,-118.4132 199.0342,-108.4133 195.5343,-118.4133 202.5343,-118.4132"/>
</g>
<!-- priznivec -->
<g id="node5" class="node">
<title>priznivec</title>
<polygon fill="#ee8262" stroke="#ee8262" points="235.6077,-36 162.4607,-36 162.4607,0 235.6077,0 235.6077,-36"/>
<text text-anchor="middle" x="199.0342" y="-13.8" font-family="Helvetica-Outline" font-size="14.00" fill="#000000">Příznivec</text>
</g>
<!-- prijeti_daru&#45;&gt;priznivec -->
<g id="edge3" class="edge">
<title>prijeti_daru&#45;&gt;priznivec</title>
<path fill="none" stroke="#000000" d="M199.0342,-71.8314C199.0342,-64.131 199.0342,-54.9743 199.0342,-46.4166"/>
<polygon fill="#000000" stroke="#000000" points="202.5343,-46.4132 199.0342,-36.4133 195.5343,-46.4133 202.5343,-46.4132"/>
</g>
</g>
</svg>
