<?xml version="1.0" encoding="UTF-8" standalone="no"?>
<!DOCTYPE svg PUBLIC "-//W3C//DTD SVG 1.1//EN"
 "http://www.w3.org/Graphics/SVG/1.1/DTD/svg11.dtd">
<!-- Generated by graphviz version 2.40.1 (20161225.0304)
 -->
<!-- Title: G Pages: 1 -->
<svg width="576pt" height="241pt"
 viewBox="0.00 0.00 576.00 241.23" xmlns="http://www.w3.org/2000/svg" xmlns:xlink="http://www.w3.org/1999/xlink">
<g id="graph0" class="graph" transform="scale(.9822 .9822) rotate(0) translate(4 241.6)">
<title>G</title>
<polygon fill="#ffffff" stroke="transparent" points="-4,4 -4,-241.6 582.436,-241.6 582.436,4 -4,4"/>
<!-- start -->
<g id="node1" class="node">
<title>start</title>
<ellipse fill="#00bfff" stroke="#00bfff" cx="278.1963" cy="-226.8" rx="10.8" ry="10.8"/>
</g>
<!-- nezaplaceny_priznivec -->
<g id="node2" class="node">
<title>nezaplaceny_priznivec</title>
<polygon fill="#ee8262" stroke="#ee8262" points="372.4338,-180 183.9588,-180 183.9588,-144 372.4338,-144 372.4338,-180"/>
<text text-anchor="middle" x="278.1963" y="-157.8" font-family="Helvetica-Outline" font-size="14.00" fill="#000000">Nově registrovaný příznivec</text>
</g>
<!-- start&#45;&gt;nezaplaceny_priznivec -->
<g id="edge1" class="edge">
<title>start&#45;&gt;nezaplaceny_priznivec</title>
<path fill="none" stroke="#000000" d="M278.1963,-215.8076C278.1963,-208.8002 278.1963,-199.3747 278.1963,-190.3708"/>
<polygon fill="#000000" stroke="#000000" points="281.6964,-190.1648 278.1963,-180.1649 274.6964,-190.1649 281.6964,-190.1648"/>
</g>
<!-- prijeti_daru -->
<g id="node3" class="node">
<title>prijeti_daru</title>
<polygon fill="#00bfff" stroke="#00bfff" points="158.5894,-108 -.1968,-108 -.1968,-72 158.5894,-72 158.5894,-108"/>
<text text-anchor="middle" x="79.1963" y="-85.8" font-family="Helvetica-Outline" font-size="14.00" fill="#000000">Přijatý dar od příznivce</text>
</g>
<!-- nezaplaceny_priznivec&#45;&gt;prijeti_daru -->
<g id="edge2" class="edge">
<title>nezaplaceny_priznivec&#45;&gt;prijeti_daru</title>
<path fill="none" stroke="#000000" d="M228.237,-143.9243C201.0326,-134.0815 167.1946,-121.8386 138.6401,-111.5073"/>
<polygon fill="#000000" stroke="#000000" points="139.7703,-108.1943 129.1761,-108.0831 137.3887,-114.7767 139.7703,-108.1943"/>
</g>
<!-- zadost_o_clenstvi -->
<g id="node5" class="node">
<title>zadost_o_clenstvi</title>
<polygon fill="#00bfff" stroke="#00bfff" points="380.0069,-108 176.3857,-108 176.3857,-72 380.0069,-72 380.0069,-108"/>
<text text-anchor="middle" x="278.1963" y="-85.8" font-family="Helvetica-Outline" font-size="14.00" fill="#000000">Vyplněná přihláška ke členství</text>
</g>
<!-- nezaplaceny_priznivec&#45;&gt;zadost_o_clenstvi -->
<g id="edge4" class="edge">
<title>nezaplaceny_priznivec&#45;&gt;zadost_o_clenstvi</title>
<path fill="none" stroke="#000000" d="M278.1963,-143.8314C278.1963,-136.131 278.1963,-126.9743 278.1963,-118.4166"/>
<polygon fill="#000000" stroke="#000000" points="281.6964,-118.4132 278.1963,-108.4133 274.6964,-118.4133 281.6964,-118.4132"/>
</g>
<!-- vymazani_udaju -->
<g id="node6" class="node">
<title>vymazani_udaju</title>
<polygon fill="#00bfff" stroke="#00bfff" points="578.6764,-108 397.7162,-108 397.7162,-72 578.6764,-72 578.6764,-108"/>
<text text-anchor="middle" x="488.1963" y="-85.8" font-family="Helvetica-Outline" font-size="14.00" fill="#000000">Vymazání údajů na žádost</text>
</g>
<!-- nezaplaceny_priznivec&#45;&gt;vymazani_udaju -->
<g id="edge5" class="edge">
<title>nezaplaceny_priznivec&#45;&gt;vymazani_udaju</title>
<path fill="none" stroke="#000000" d="M330.9171,-143.9243C359.7501,-134.0387 395.6444,-121.7321 425.8594,-111.3726"/>
<polygon fill="#000000" stroke="#000000" points="427.1295,-114.6373 435.4538,-108.0831 424.8592,-108.0156 427.1295,-114.6373"/>
</g>
<!-- priznivec -->
<g id="node4" class="node">
<title>priznivec</title>
<polygon fill="#ee8262" stroke="#ee8262" points="115.7698,-36 42.6228,-36 42.6228,0 115.7698,0 115.7698,-36"/>
<text text-anchor="middle" x="79.1963" y="-13.8" font-family="Helvetica-Outline" font-size="14.00" fill="#000000">Příznivec</text>
</g>
<!-- prijeti_daru&#45;&gt;priznivec -->
<g id="edge3" class="edge">
<title>prijeti_daru&#45;&gt;priznivec</title>
<path fill="none" stroke="#000000" d="M79.1963,-71.8314C79.1963,-64.131 79.1963,-54.9743 79.1963,-46.4166"/>
<polygon fill="#000000" stroke="#000000" points="82.6964,-46.4132 79.1963,-36.4133 75.6964,-46.4133 82.6964,-46.4132"/>
</g>
<!-- end -->
<g id="node7" class="node">
<title>end</title>
<ellipse fill="#00bfff" stroke="#00bfff" cx="488.1963" cy="-18" rx="10.8" ry="10.8"/>
</g>
<!-- vymazani_udaju&#45;&gt;end -->
<g id="edge6" class="edge">
<title>vymazani_udaju&#45;&gt;end</title>
<path fill="none" stroke="#000000" d="M488.1963,-71.8314C488.1963,-61.9191 488.1963,-49.594 488.1963,-39.2393"/>
<polygon fill="#000000" stroke="#000000" points="491.6964,-38.9842 488.1963,-28.9842 484.6964,-38.9842 491.6964,-38.9842"/>
</g>
</g>
</svg>
