<?xml version="1.0" encoding="UTF-8" standalone="no"?>
<!DOCTYPE svg PUBLIC "-//W3C//DTD SVG 1.1//EN"
 "http://www.w3.org/Graphics/SVG/1.1/DTD/svg11.dtd">
<!-- Generated by graphviz version 2.40.1 (20161225.0304)
 -->
<!-- Title: G Pages: 1 -->
<svg width="197pt" height="246pt"
 viewBox="0.00 0.00 196.74 245.60" xmlns="http://www.w3.org/2000/svg" xmlns:xlink="http://www.w3.org/1999/xlink">
<g id="graph0" class="graph" transform="scale(1 1) rotate(0) translate(4 241.6)">
<title>G</title>
<polygon fill="#ffffff" stroke="transparent" points="-4,4 -4,-241.6 192.7373,-241.6 192.7373,4 -4,4"/>
<!-- start -->
<g id="node1" class="node">
<title>start</title>
<ellipse fill="#00bfff" stroke="#00bfff" cx="94.3687" cy="-226.8" rx="10.8" ry="10.8"/>
</g>
<!-- nezaplaceny_priznivec -->
<g id="node2" class="node">
<title>nezaplaceny_priznivec</title>
<polygon fill="#ee8262" stroke="#ee8262" points="188.6061,-180 .1312,-180 .1312,-144 188.6061,-144 188.6061,-180"/>
<text text-anchor="middle" x="94.3687" y="-157.8" font-family="Helvetica-Outline" font-size="14.00" fill="#000000">Nově registrovaný příznivec</text>
</g>
<!-- start&#45;&gt;nezaplaceny_priznivec -->
<g id="edge1" class="edge">
<title>start&#45;&gt;nezaplaceny_priznivec</title>
<path fill="none" stroke="#000000" d="M94.3687,-215.8076C94.3687,-208.8002 94.3687,-199.3747 94.3687,-190.3708"/>
<polygon fill="#000000" stroke="#000000" points="97.8688,-190.1648 94.3687,-180.1649 90.8688,-190.1649 97.8688,-190.1648"/>
</g>
<!-- prijeti_daru -->
<g id="node3" class="node">
<title>prijeti_daru</title>
<polygon fill="#00bfff" stroke="#00bfff" points="173.7617,-108 14.9756,-108 14.9756,-72 173.7617,-72 173.7617,-108"/>
<text text-anchor="middle" x="94.3687" y="-85.8" font-family="Helvetica-Outline" font-size="14.00" fill="#000000">Přijatý dar od příznivce</text>
</g>
<!-- nezaplaceny_priznivec&#45;&gt;prijeti_daru -->
<g id="edge2" class="edge">
<title>nezaplaceny_priznivec&#45;&gt;prijeti_daru</title>
<path fill="none" stroke="#000000" d="M94.3687,-143.8314C94.3687,-136.131 94.3687,-126.9743 94.3687,-118.4166"/>
<polygon fill="#000000" stroke="#000000" points="97.8688,-118.4132 94.3687,-108.4133 90.8688,-118.4133 97.8688,-118.4132"/>
</g>
<!-- priznivec -->
<g id="node4" class="node">
<title>priznivec</title>
<polygon fill="#ee8262" stroke="#ee8262" points="130.9422,-36 57.7952,-36 57.7952,0 130.9422,0 130.9422,-36"/>
<text text-anchor="middle" x="94.3687" y="-13.8" font-family="Helvetica-Outline" font-size="14.00" fill="#000000">Příznivec</text>
</g>
<!-- prijeti_daru&#45;&gt;priznivec -->
<g id="edge3" class="edge">
<title>prijeti_daru&#45;&gt;priznivec</title>
<path fill="none" stroke="#000000" d="M94.3687,-71.8314C94.3687,-64.131 94.3687,-54.9743 94.3687,-46.4166"/>
<polygon fill="#000000" stroke="#000000" points="97.8688,-46.4132 94.3687,-36.4133 90.8688,-46.4133 97.8688,-46.4132"/>
</g>
</g>
</svg>
