<?xml version="1.0" encoding="UTF-8" standalone="no"?>
<!DOCTYPE svg PUBLIC "-//W3C//DTD SVG 1.1//EN"
 "http://www.w3.org/Graphics/SVG/1.1/DTD/svg11.dtd">
<!-- Generated by graphviz version 2.40.1 (20161225.0304)
 -->
<!-- Title: G Pages: 1 -->
<svg width="576pt" height="315pt"
 viewBox="0.00 0.00 576.00 314.64" xmlns="http://www.w3.org/2000/svg" xmlns:xlink="http://www.w3.org/1999/xlink">
<g id="graph0" class="graph" transform="scale(.7334 .7334) rotate(0) translate(4 425)">
<title>G</title>
<polygon fill="#ffffff" stroke="transparent" points="-4,4 -4,-425 781.3574,-425 781.3574,4 -4,4"/>
<!-- owner -->
<g id="node1" class="node">
<title>owner</title>
<path fill="none" stroke="#00bfff" stroke-width="3" d="M168.6585,-421C168.6585,-421 84.4714,-421 84.4714,-421 78.4714,-421 72.4714,-415 72.4714,-409 72.4714,-409 72.4714,-351 72.4714,-351 72.4714,-345 78.4714,-339 84.4714,-339 84.4714,-339 168.6585,-339 168.6585,-339 174.6585,-339 180.6585,-345 180.6585,-351 180.6585,-351 180.6585,-409 180.6585,-409 180.6585,-415 174.6585,-421 168.6585,-421"/>
<text text-anchor="middle" x="126.5649" y="-405.8" font-family="Helvetica-Outline" font-size="14.00" fill="#000000">Registr</text>
<text text-anchor="middle" x="126.5649" y="-375.8" font-family="Helvetica-Outline" font-size="14.00" fill="#000000">Přijímání členů</text>
<text text-anchor="middle" x="126.5649" y="-345.8" font-family="Helvetica-Outline" font-size="14.00" fill="#000000">v 2.0</text>
</g>
<!-- start -->
<g id="node2" class="node">
<title>start</title>
<ellipse fill="#00bfff" stroke="#00bfff" cx="209.5649" cy="-380" rx="10.8" ry="10.8"/>
</g>
<!-- priznivec -->
<g id="node3" class="node">
<title>priznivec</title>
<polygon fill="#ee8262" stroke="#ee8262" points="246.1384,-303 172.9914,-303 172.9914,-267 246.1384,-267 246.1384,-303"/>
<text text-anchor="middle" x="209.5649" y="-280.8" font-family="Helvetica-Outline" font-size="14.00" fill="#000000">Příznivec</text>
</g>
<!-- start&#45;&gt;priznivec -->
<g id="edge1" class="edge">
<title>start&#45;&gt;priznivec</title>
<path fill="none" stroke="#000000" d="M209.5649,-369.1023C209.5649,-355.5949 209.5649,-332.0678 209.5649,-313.3263"/>
<polygon fill="#000000" stroke="#000000" points="213.065,-313.2291 209.5649,-303.2291 206.065,-313.2292 213.065,-313.2291"/>
</g>
<!-- zadost_o_clenstvi_priznivce -->
<g id="node4" class="node">
<title>zadost_o_clenstvi_priznivce</title>
<polygon fill="#00bfff" stroke="#00bfff" points="261.1949,-231 -.065,-231 -.065,-195 261.1949,-195 261.1949,-231"/>
<text text-anchor="middle" x="130.5649" y="-208.8" font-family="Helvetica-Outline" font-size="14.00" fill="#000000">Na webu vyplněná přihláška ke členství</text>
</g>
<!-- priznivec&#45;&gt;zadost_o_clenstvi_priznivce -->
<g id="edge2" class="edge">
<title>priznivec&#45;&gt;zadost_o_clenstvi_priznivce</title>
<path fill="none" stroke="#000000" d="M189.6299,-266.8314C180.0867,-258.1337 168.5051,-247.5783 158.1343,-238.1265"/>
<polygon fill="#000000" stroke="#000000" points="160.2422,-235.3121 150.4936,-231.1628 155.5269,-240.4857 160.2422,-235.3121"/>
</g>
<!-- prijeti_priznivce -->
<g id="node5" class="node">
<title>prijeti_priznivce</title>
<polygon fill="#00bfff" stroke="#00bfff" points="202.9839,-159 58.146,-159 58.146,-123 202.9839,-123 202.9839,-159"/>
<text text-anchor="middle" x="130.5649" y="-136.8" font-family="Helvetica-Outline" font-size="14.00" fill="#000000">KrP schválil za člena</text>
</g>
<!-- zadost_o_clenstvi_priznivce&#45;&gt;prijeti_priznivce -->
<g id="edge3" class="edge">
<title>zadost_o_clenstvi_priznivce&#45;&gt;prijeti_priznivce</title>
<path fill="none" stroke="#000000" d="M130.5649,-194.8314C130.5649,-187.131 130.5649,-177.9743 130.5649,-169.4166"/>
<polygon fill="#000000" stroke="#000000" points="134.065,-169.4132 130.5649,-159.4133 127.065,-169.4133 134.065,-169.4132"/>
</g>
<!-- neprijeti_priznivce -->
<g id="node10" class="node">
<title>neprijeti_priznivce</title>
<polygon fill="#00bfff" stroke="#00bfff" points="326.023,-159 221.1069,-159 221.1069,-123 326.023,-123 326.023,-159"/>
<text text-anchor="middle" x="273.5649" y="-136.8" font-family="Helvetica-Outline" font-size="14.00" fill="#000000">KrP neschválil</text>
</g>
<!-- zadost_o_clenstvi_priznivce&#45;&gt;neprijeti_priznivce -->
<g id="edge8" class="edge">
<title>zadost_o_clenstvi_priznivce&#45;&gt;neprijeti_priznivce</title>
<path fill="none" stroke="#000000" d="M166.6499,-194.8314C185.3639,-185.4089 208.4082,-173.8062 228.3049,-163.7883"/>
<polygon fill="#000000" stroke="#000000" points="230.1338,-166.7861 237.4915,-159.1628 226.9858,-160.5339 230.1338,-166.7861"/>
</g>
<!-- splneni_podminek -->
<g id="node6" class="node">
<title>splneni_podminek</title>
<polygon fill="#000000" stroke="#00bfff" points="410.5649,-72.5 410.5649,-86.5 446.5649,-86.5 446.5649,-72.5 410.5649,-72.5"/>
<text text-anchor="middle" x="416.5098" y="-75.3" font-family="Helvetica-Outline" font-size="14.00" fill="#000000"> </text>
<polyline fill="none" stroke="#00bfff" points="422.4546,-72.5 422.4546,-86.5 "/>
<text text-anchor="middle" x="428.3994" y="-75.3" font-family="Helvetica-Outline" font-size="14.00" fill="#000000"> </text>
<polyline fill="none" stroke="#00bfff" points="434.3442,-72.5 434.3442,-86.5 "/>
<text text-anchor="middle" x="440.2891" y="-75.3" font-family="Helvetica-Outline" font-size="14.00" fill="#000000"> </text>
</g>
<!-- prijeti_priznivce&#45;&gt;splneni_podminek -->
<g id="edge4" class="edge">
<title>prijeti_priznivce&#45;&gt;splneni_podminek</title>
<path fill="none" stroke="#000000" d="M202.9873,-125.031C206.2231,-124.34 209.4271,-123.6603 212.5649,-123 279.8863,-108.8333 359.2216,-93.1027 400.4656,-84.9972"/>
<polygon fill="#000000" stroke="#000000" points="401.1986,-88.4202 410.3373,-83.0599 399.8505,-81.5513 401.1986,-88.4202"/>
</g>
<!-- clen -->
<g id="node9" class="node">
<title>clen</title>
<polygon fill="#ee8262" stroke="#ee8262" points="471.606,-36 385.5239,-36 385.5239,0 471.606,0 471.606,-36"/>
<text text-anchor="middle" x="428.5649" y="-13.8" font-family="Helvetica-Outline" font-size="14.00" fill="#000000">Řádný člen</text>
</g>
<!-- splneni_podminek&#45;&gt;clen -->
<g id="edge7" class="edge">
<title>splneni_podminek&#45;&gt;clen</title>
<path fill="none" stroke="#000000" d="M428.5649,-72.4452C428.5649,-66.0039 428.5649,-56.0428 428.5649,-46.3932"/>
<polygon fill="#000000" stroke="#000000" points="432.065,-46.2257 428.5649,-36.2258 425.065,-46.2258 432.065,-46.2257"/>
</g>
<!-- platba_prispevku -->
<g id="node7" class="node">
<title>platba_prispevku</title>
<polygon fill="#00bfff" stroke="#00bfff" points="513.6196,-159 343.5102,-159 343.5102,-123 513.6196,-123 513.6196,-159"/>
<text text-anchor="middle" x="428.5649" y="-136.8" font-family="Helvetica-Outline" font-size="14.00" fill="#000000">Přijatý členský příspěvek</text>
</g>
<!-- platba_prispevku&#45;&gt;splneni_podminek -->
<g id="edge5" class="edge">
<title>platba_prispevku&#45;&gt;splneni_podminek</title>
<path fill="none" stroke="#000000" d="M428.5649,-122.8806C428.5649,-114.5963 428.5649,-104.8315 428.5649,-96.6661"/>
<polygon fill="#000000" stroke="#000000" points="432.065,-96.5099 428.5649,-86.5099 425.065,-96.5099 432.065,-96.5099"/>
</g>
<!-- prijata_prihlaska -->
<g id="node8" class="node">
<title>prijata_prihlaska</title>
<polygon fill="#00bfff" stroke="#00bfff" points="777.1503,-159 531.9796,-159 531.9796,-123 777.1503,-123 777.1503,-159"/>
<text text-anchor="middle" x="654.5649" y="-136.8" font-family="Helvetica-Outline" font-size="14.00" fill="#000000">Doručena přihláška v listinné podobě</text>
</g>
<!-- prijata_prihlaska&#45;&gt;splneni_podminek -->
<g id="edge6" class="edge">
<title>prijata_prihlaska&#45;&gt;splneni_podminek</title>
<path fill="none" stroke="#000000" d="M588.2845,-122.9635C544.5645,-111.0663 489.5198,-96.0873 456.7914,-87.1811"/>
<polygon fill="#000000" stroke="#000000" points="457.5602,-83.7631 446.9921,-84.5145 455.7222,-90.5175 457.5602,-83.7631"/>
</g>
<!-- neprijeti_priznivce&#45;&gt;priznivec -->
<g id="edge9" class="edge">
<title>neprijeti_priznivce&#45;&gt;priznivec</title>
<path fill="none" stroke="#000000" d="M277.0096,-159.2226C279.6843,-178.1298 281.347,-208.0831 270.5649,-231 265.2493,-242.2982 256.3457,-252.2258 246.9609,-260.3845"/>
<polygon fill="#000000" stroke="#000000" points="244.5957,-257.7962 239.0326,-266.813 249.0045,-263.2335 244.5957,-257.7962"/>
</g>
</g>
</svg>
