<?xml version="1.0" encoding="UTF-8" standalone="no"?>
<!DOCTYPE svg PUBLIC "-//W3C//DTD SVG 1.1//EN"
 "http://www.w3.org/Graphics/SVG/1.1/DTD/svg11.dtd">
<!-- Generated by graphviz version 2.40.1 (20161225.0304)
 -->
<!-- Title: G Pages: 1 -->
<svg width="576pt" height="302pt"
 viewBox="0.00 0.00 576.00 301.95" xmlns="http://www.w3.org/2000/svg" xmlns:xlink="http://www.w3.org/1999/xlink">
<g id="graph0" class="graph" transform="scale(.7207 .7207) rotate(0) translate(4 415)">
<title>G</title>
<polygon fill="#ffffff" stroke="transparent" points="-4,4 -4,-415 795.2783,-415 795.2783,4 -4,4"/>
<!-- owner -->
<g id="node1" class="node">
<title>owner</title>
<path fill="none" stroke="#00bfff" stroke-width="3" d="M182.9575,-411C182.9575,-411 12.0142,-411 12.0142,-411 6.0142,-411 .0142,-405 .0142,-399 .0142,-399 .0142,-351 .0142,-351 .0142,-345 6.0142,-339 12.0142,-339 12.0142,-339 182.9575,-339 182.9575,-339 188.9575,-339 194.9575,-345 194.9575,-351 194.9575,-351 194.9575,-399 194.9575,-399 194.9575,-405 188.9575,-411 182.9575,-411"/>
<text text-anchor="middle" x="97.4858" y="-370.8" font-family="Helvetica-Outline" font-size="14.00" fill="#000000">#3 : Přijetí příznivce za člena</text>
</g>
<!-- start -->
<g id="node2" class="node">
<title>start</title>
<ellipse fill="#00bfff" stroke="#00bfff" cx="223.4858" cy="-375" rx="10.8" ry="10.8"/>
</g>
<!-- priznivec -->
<g id="node3" class="node">
<title>priznivec</title>
<polygon fill="#ee8262" stroke="#ee8262" points="260.0593,-303 186.9123,-303 186.9123,-267 260.0593,-267 260.0593,-303"/>
<text text-anchor="middle" x="223.4858" y="-280.8" font-family="Helvetica-Outline" font-size="14.00" fill="#000000">Příznivec</text>
</g>
<!-- start&#45;&gt;priznivec -->
<g id="edge1" class="edge">
<title>start&#45;&gt;priznivec</title>
<path fill="none" stroke="#000000" d="M223.4858,-363.9642C223.4858,-351.4477 223.4858,-330.55 223.4858,-313.3962"/>
<polygon fill="#000000" stroke="#000000" points="226.9859,-313.3077 223.4858,-303.3078 219.9859,-313.3078 226.9859,-313.3077"/>
</g>
<!-- zadost_o_clenstvi_priznivce -->
<g id="node4" class="node">
<title>zadost_o_clenstvi_priznivce</title>
<polygon fill="#00bfff" stroke="#00bfff" points="275.1158,-231 13.8559,-231 13.8559,-195 275.1158,-195 275.1158,-231"/>
<text text-anchor="middle" x="144.4858" y="-208.8" font-family="Helvetica-Outline" font-size="14.00" fill="#000000">Na webu vyplněná přihláška ke členství</text>
</g>
<!-- priznivec&#45;&gt;zadost_o_clenstvi_priznivce -->
<g id="edge2" class="edge">
<title>priznivec&#45;&gt;zadost_o_clenstvi_priznivce</title>
<path fill="none" stroke="#000000" d="M203.5508,-266.8314C194.0076,-258.1337 182.426,-247.5783 172.0552,-238.1265"/>
<polygon fill="#000000" stroke="#000000" points="174.1631,-235.3121 164.4145,-231.1628 169.4478,-240.4857 174.1631,-235.3121"/>
</g>
<!-- prijeti_priznivce -->
<g id="node5" class="node">
<title>prijeti_priznivce</title>
<polygon fill="#00bfff" stroke="#00bfff" points="216.9048,-159 72.0669,-159 72.0669,-123 216.9048,-123 216.9048,-159"/>
<text text-anchor="middle" x="144.4858" y="-136.8" font-family="Helvetica-Outline" font-size="14.00" fill="#000000">KrP schválil za člena</text>
</g>
<!-- zadost_o_clenstvi_priznivce&#45;&gt;prijeti_priznivce -->
<g id="edge3" class="edge">
<title>zadost_o_clenstvi_priznivce&#45;&gt;prijeti_priznivce</title>
<path fill="none" stroke="#000000" d="M144.4858,-194.8314C144.4858,-187.131 144.4858,-177.9743 144.4858,-169.4166"/>
<polygon fill="#000000" stroke="#000000" points="147.9859,-169.4132 144.4858,-159.4133 140.9859,-169.4133 147.9859,-169.4132"/>
</g>
<!-- neprijeti_priznivce -->
<g id="node10" class="node">
<title>neprijeti_priznivce</title>
<polygon fill="#00bfff" stroke="#00bfff" points="339.9439,-159 235.0278,-159 235.0278,-123 339.9439,-123 339.9439,-159"/>
<text text-anchor="middle" x="287.4858" y="-136.8" font-family="Helvetica-Outline" font-size="14.00" fill="#000000">KrP neschválil</text>
</g>
<!-- zadost_o_clenstvi_priznivce&#45;&gt;neprijeti_priznivce -->
<g id="edge8" class="edge">
<title>zadost_o_clenstvi_priznivce&#45;&gt;neprijeti_priznivce</title>
<path fill="none" stroke="#000000" d="M180.5708,-194.8314C199.2847,-185.4089 222.3291,-173.8062 242.2258,-163.7883"/>
<polygon fill="#000000" stroke="#000000" points="244.0547,-166.7861 251.4124,-159.1628 240.9067,-160.5339 244.0547,-166.7861"/>
</g>
<!-- splneni_podminek -->
<g id="node6" class="node">
<title>splneni_podminek</title>
<polygon fill="#000000" stroke="#00bfff" points="424.4858,-72.5 424.4858,-86.5 460.4858,-86.5 460.4858,-72.5 424.4858,-72.5"/>
<text text-anchor="middle" x="430.4307" y="-75.3" font-family="Helvetica-Outline" font-size="14.00" fill="#000000"> </text>
<polyline fill="none" stroke="#00bfff" points="436.3755,-72.5 436.3755,-86.5 "/>
<text text-anchor="middle" x="442.3203" y="-75.3" font-family="Helvetica-Outline" font-size="14.00" fill="#000000"> </text>
<polyline fill="none" stroke="#00bfff" points="448.2651,-72.5 448.2651,-86.5 "/>
<text text-anchor="middle" x="454.21" y="-75.3" font-family="Helvetica-Outline" font-size="14.00" fill="#000000"> </text>
</g>
<!-- prijeti_priznivce&#45;&gt;splneni_podminek -->
<g id="edge4" class="edge">
<title>prijeti_priznivce&#45;&gt;splneni_podminek</title>
<path fill="none" stroke="#000000" d="M216.9082,-125.031C220.144,-124.34 223.348,-123.6603 226.4858,-123 293.8072,-108.8333 373.1425,-93.1027 414.3865,-84.9972"/>
<polygon fill="#000000" stroke="#000000" points="415.1194,-88.4202 424.2582,-83.0599 413.7714,-81.5513 415.1194,-88.4202"/>
</g>
<!-- clen -->
<g id="node9" class="node">
<title>clen</title>
<polygon fill="#ee8262" stroke="#ee8262" points="485.5269,-36 399.4448,-36 399.4448,0 485.5269,0 485.5269,-36"/>
<text text-anchor="middle" x="442.4858" y="-13.8" font-family="Helvetica-Outline" font-size="14.00" fill="#000000">Řádný člen</text>
</g>
<!-- splneni_podminek&#45;&gt;clen -->
<g id="edge7" class="edge">
<title>splneni_podminek&#45;&gt;clen</title>
<path fill="none" stroke="#000000" d="M442.4858,-72.4452C442.4858,-66.0039 442.4858,-56.0428 442.4858,-46.3932"/>
<polygon fill="#000000" stroke="#000000" points="445.9859,-46.2257 442.4858,-36.2258 438.9859,-46.2258 445.9859,-46.2257"/>
</g>
<!-- platba_prispevku -->
<g id="node7" class="node">
<title>platba_prispevku</title>
<polygon fill="#00bfff" stroke="#00bfff" points="527.5405,-159 357.4311,-159 357.4311,-123 527.5405,-123 527.5405,-159"/>
<text text-anchor="middle" x="442.4858" y="-136.8" font-family="Helvetica-Outline" font-size="14.00" fill="#000000">Přijatý členský příspěvek</text>
</g>
<!-- platba_prispevku&#45;&gt;splneni_podminek -->
<g id="edge5" class="edge">
<title>platba_prispevku&#45;&gt;splneni_podminek</title>
<path fill="none" stroke="#000000" d="M442.4858,-122.8806C442.4858,-114.5963 442.4858,-104.8315 442.4858,-96.6661"/>
<polygon fill="#000000" stroke="#000000" points="445.9859,-96.5099 442.4858,-86.5099 438.9859,-96.5099 445.9859,-96.5099"/>
</g>
<!-- prijata_prihlaska -->
<g id="node8" class="node">
<title>prijata_prihlaska</title>
<polygon fill="#00bfff" stroke="#00bfff" points="791.0712,-159 545.9005,-159 545.9005,-123 791.0712,-123 791.0712,-159"/>
<text text-anchor="middle" x="668.4858" y="-136.8" font-family="Helvetica-Outline" font-size="14.00" fill="#000000">Doručena přihláška v listinné podobě</text>
</g>
<!-- prijata_prihlaska&#45;&gt;splneni_podminek -->
<g id="edge6" class="edge">
<title>prijata_prihlaska&#45;&gt;splneni_podminek</title>
<path fill="none" stroke="#000000" d="M602.2054,-122.9635C558.4854,-111.0663 503.4407,-96.0873 470.7123,-87.1811"/>
<polygon fill="#000000" stroke="#000000" points="471.4811,-83.7631 460.913,-84.5145 469.643,-90.5175 471.4811,-83.7631"/>
</g>
<!-- neprijeti_priznivce&#45;&gt;priznivec -->
<g id="edge9" class="edge">
<title>neprijeti_priznivce&#45;&gt;priznivec</title>
<path fill="none" stroke="#000000" d="M290.9305,-159.2226C293.6052,-178.1298 295.2678,-208.0831 284.4858,-231 279.1702,-242.2982 270.2666,-252.2258 260.8818,-260.3845"/>
<polygon fill="#000000" stroke="#000000" points="258.5166,-257.7962 252.9535,-266.813 262.9254,-263.2335 258.5166,-257.7962"/>
</g>
</g>
</svg>
