<?xml version="1.0" encoding="UTF-8" standalone="no"?>
<!DOCTYPE svg PUBLIC "-//W3C//DTD SVG 1.1//EN"
 "http://www.w3.org/Graphics/SVG/1.1/DTD/svg11.dtd">
<!-- Generated by graphviz version 2.40.1 (20161225.0304)
 -->
<!-- Title: G Pages: 1 -->
<svg width="302pt" height="738pt"
 viewBox="0.00 0.00 301.89 738.40" xmlns="http://www.w3.org/2000/svg" xmlns:xlink="http://www.w3.org/1999/xlink">
<g id="graph0" class="graph" transform="scale(1 1) rotate(0) translate(4 734.4)">
<title>G</title>
<polygon fill="#ffffff" stroke="transparent" points="-4,4 -4,-734.4 297.8921,-734.4 297.8921,4 -4,4"/>
<!-- owner -->
<g id="node1" class="node">
<title>owner</title>
<path fill="none" stroke="#000000" stroke-width="3" d="M129.3547,-730.4C129.3547,-730.4 12.2147,-730.4 12.2147,-730.4 6.2147,-730.4 .2147,-724.4 .2147,-718.4 .2147,-718.4 .2147,-660.4 .2147,-660.4 .2147,-654.4 6.2147,-648.4 12.2147,-648.4 12.2147,-648.4 129.3547,-648.4 129.3547,-648.4 135.3547,-648.4 141.3547,-654.4 141.3547,-660.4 141.3547,-660.4 141.3547,-718.4 141.3547,-718.4 141.3547,-724.4 135.3547,-730.4 129.3547,-730.4"/>
<text text-anchor="middle" x="70.7847" y="-715.2" font-family="Times,serif" font-size="14.00" fill="#000000">Krajské předsednictvo</text>
<text text-anchor="middle" x="70.7847" y="-685.2" font-family="Times,serif" font-size="14.00" fill="#000000">Jednání předsednictva</text>
<text text-anchor="middle" x="70.7847" y="-655.2" font-family="Times,serif" font-size="14.00" fill="#000000">v 1.0</text>
</g>
<!-- start -->
<g id="node2" class="node">
<title>start</title>
<ellipse fill="#000000" stroke="#000000" cx="166.7847" cy="-689.4" rx="7.2" ry="7.2"/>
</g>
<!-- pozvanka -->
<g id="node3" class="node">
<title>pozvanka</title>
<ellipse fill="none" stroke="#000000" cx="166.7847" cy="-593.4" rx="83.0718" ry="18"/>
<text text-anchor="middle" x="166.7847" y="-589.2" font-family="Times,serif" font-size="14.00" fill="#000000">Pozvánka na jednání</text>
</g>
<!-- start&#45;&gt;pozvanka -->
<g id="edge1" class="edge">
<title>start&#45;&gt;pozvanka</title>
<path fill="none" stroke="#000000" d="M166.7847,-682.1844C166.7847,-669.5593 166.7847,-642.8215 166.7847,-621.9695"/>
<polygon fill="#000000" stroke="#000000" points="170.2848,-621.7076 166.7847,-611.7076 163.2848,-621.7076 170.2848,-621.7076"/>
</g>
<!-- urceni_zapisovatele -->
<g id="node4" class="node">
<title>urceni_zapisovatele</title>
<ellipse fill="none" stroke="#000000" cx="166.7847" cy="-520.4" rx="80.1633" ry="18"/>
<text text-anchor="middle" x="166.7847" y="-516.2" font-family="Times,serif" font-size="14.00" fill="#000000">Určení zapisovatele</text>
</g>
<!-- pozvanka&#45;&gt;urceni_zapisovatele -->
<g id="edge2" class="edge">
<title>pozvanka&#45;&gt;urceni_zapisovatele</title>
<path fill="none" stroke="#000000" d="M166.7847,-575.3551C166.7847,-567.2828 166.7847,-557.5764 166.7847,-548.5817"/>
<polygon fill="#000000" stroke="#000000" points="170.2848,-548.4903 166.7847,-538.4904 163.2848,-548.4904 170.2848,-548.4903"/>
</g>
<!-- sestaveni_poradu -->
<g id="node5" class="node">
<title>sestaveni_poradu</title>
<ellipse fill="none" stroke="#000000" cx="166.7847" cy="-447.4" rx="99.0157" ry="18"/>
<text text-anchor="middle" x="166.7847" y="-443.2" font-family="Times,serif" font-size="14.00" fill="#000000">Sestavení pořadu jednání</text>
</g>
<!-- urceni_zapisovatele&#45;&gt;sestaveni_poradu -->
<g id="edge3" class="edge">
<title>urceni_zapisovatele&#45;&gt;sestaveni_poradu</title>
<path fill="none" stroke="#000000" d="M166.7847,-502.3551C166.7847,-494.2828 166.7847,-484.5764 166.7847,-475.5817"/>
<polygon fill="#000000" stroke="#000000" points="170.2848,-475.4903 166.7847,-465.4904 163.2848,-475.4904 170.2848,-475.4903"/>
</g>
<!-- projednani_bodu -->
<g id="node6" class="node">
<title>projednani_bodu</title>
<ellipse fill="none" stroke="#000000" cx="166.7847" cy="-374.4" rx="68.1387" ry="18"/>
<text text-anchor="middle" x="166.7847" y="-370.2" font-family="Times,serif" font-size="14.00" fill="#000000">Projednání bodu</text>
</g>
<!-- sestaveni_poradu&#45;&gt;projednani_bodu -->
<g id="edge4" class="edge">
<title>sestaveni_poradu&#45;&gt;projednani_bodu</title>
<path fill="none" stroke="#000000" d="M166.7847,-429.3551C166.7847,-421.2828 166.7847,-411.5764 166.7847,-402.5817"/>
<polygon fill="#000000" stroke="#000000" points="170.2848,-402.4903 166.7847,-392.4904 163.2848,-402.4904 170.2848,-402.4903"/>
</g>
<!-- prijeti_usneseni -->
<g id="node7" class="node">
<title>prijeti_usneseni</title>
<ellipse fill="none" stroke="#000000" cx="116.7847" cy="-301.4" rx="64.2795" ry="18"/>
<text text-anchor="middle" x="116.7847" y="-297.2" font-family="Times,serif" font-size="14.00" fill="#000000">Přijetí usnesení</text>
</g>
<!-- projednani_bodu&#45;&gt;prijeti_usneseni -->
<g id="edge5" class="edge">
<title>projednani_bodu&#45;&gt;prijeti_usneseni</title>
<path fill="none" stroke="#000000" d="M154.4251,-356.3551C148.4913,-347.6917 141.2683,-337.1461 134.7423,-327.6182"/>
<polygon fill="#000000" stroke="#000000" points="137.5406,-325.5099 129.002,-319.2374 131.7654,-329.4655 137.5406,-325.5099"/>
</g>
<!-- je_dalsi_bod -->
<g id="node8" class="node">
<title>je_dalsi_bod</title>
<polygon fill="none" stroke="#000000" points="166.7847,-246.4 45.9518,-228.4 166.7847,-210.4 287.6176,-228.4 166.7847,-246.4"/>
<text text-anchor="middle" x="166.7847" y="-224.2" font-family="Times,serif" font-size="14.00" fill="#000000">Další bod na pořadu?</text>
</g>
<!-- prijeti_usneseni&#45;&gt;je_dalsi_bod -->
<g id="edge6" class="edge">
<title>prijeti_usneseni&#45;&gt;je_dalsi_bod</title>
<path fill="none" stroke="#000000" d="M129.1442,-283.3551C135.407,-274.2115 143.1059,-262.971 149.9056,-253.0434"/>
<polygon fill="#000000" stroke="#000000" points="152.8276,-254.971 155.5909,-244.7429 147.0524,-251.0153 152.8276,-254.971"/>
</g>
<!-- je_dalsi_bod&#45;&gt;projednani_bodu -->
<g id="edge7" class="edge">
<title>je_dalsi_bod&#45;&gt;projednani_bodu</title>
<path fill="none" stroke="#000000" d="M175.8538,-245.1833C181.0657,-255.801 187.0967,-270.0052 189.7847,-283.4 192.9326,-299.0873 192.9326,-303.7127 189.7847,-319.4 187.9205,-328.6898 184.4483,-338.3689 180.7566,-346.9709"/>
<polygon fill="#000000" stroke="#000000" points="177.5367,-345.5964 176.5692,-356.147 183.9049,-348.5025 177.5367,-345.5964"/>
<text text-anchor="middle" x="202.8916" y="-297.2" font-family="Times,serif" font-size="14.00" fill="#000000">ano</text>
</g>
<!-- zaver -->
<g id="node9" class="node">
<title>zaver</title>
<ellipse fill="none" stroke="#000000" cx="166.7847" cy="-142.4" rx="58.9322" ry="18"/>
<text text-anchor="middle" x="166.7847" y="-138.2" font-family="Times,serif" font-size="14.00" fill="#000000">Závěr jednání</text>
</g>
<!-- je_dalsi_bod&#45;&gt;zaver -->
<g id="edge8" class="edge">
<title>je_dalsi_bod&#45;&gt;zaver</title>
<path fill="none" stroke="#000000" d="M166.7847,-210.1616C166.7847,-198.7597 166.7847,-183.8342 166.7847,-170.894"/>
<polygon fill="#000000" stroke="#000000" points="170.2848,-170.6121 166.7847,-160.6121 163.2848,-170.6121 170.2848,-170.6121"/>
<text text-anchor="middle" x="230.3384" y="-181.2" font-family="Times,serif" font-size="14.00" fill="#000000">ne &#45; program vyčerpán</text>
</g>
<!-- zverejneni_zapisu -->
<g id="node10" class="node">
<title>zverejneni_zapisu</title>
<ellipse fill="none" stroke="#000000" cx="166.7847" cy="-69.4" rx="73.4236" ry="18"/>
<text text-anchor="middle" x="166.7847" y="-65.2" font-family="Times,serif" font-size="14.00" fill="#000000">Zveřejnění zápisu</text>
</g>
<!-- zaver&#45;&gt;zverejneni_zapisu -->
<g id="edge9" class="edge">
<title>zaver&#45;&gt;zverejneni_zapisu</title>
<path fill="none" stroke="#000000" d="M166.7847,-124.3551C166.7847,-116.2828 166.7847,-106.5764 166.7847,-97.5817"/>
<polygon fill="#000000" stroke="#000000" points="170.2848,-97.4903 166.7847,-87.4904 163.2848,-97.4904 170.2848,-97.4903"/>
</g>
<!-- end -->
<g id="node11" class="node">
<title>end</title>
<ellipse fill="#000000" stroke="#000000" cx="166.7847" cy="-7.2" rx="7.2" ry="7.2"/>
</g>
<!-- zverejneni_zapisu&#45;&gt;end -->
<g id="edge10" class="edge">
<title>zverejneni_zapisu&#45;&gt;end</title>
<path fill="none" stroke="#000000" d="M166.7847,-51.0744C166.7847,-42.7931 166.7847,-33.0493 166.7847,-24.8503"/>
<polygon fill="#000000" stroke="#000000" points="170.2848,-24.6024 166.7847,-14.6025 163.2848,-24.6025 170.2848,-24.6024"/>
</g>
</g>
</svg>
