<?xml version="1.0" encoding="UTF-8" standalone="no"?>
<!DOCTYPE svg PUBLIC "-//W3C//DTD SVG 1.1//EN"
 "http://www.w3.org/Graphics/SVG/1.1/DTD/svg11.dtd">
<!-- Generated by graphviz version 2.40.1 (20161225.0304)
 -->
<!-- Title: G Pages: 1 -->
<svg width="351pt" height="751pt"
 viewBox="0.00 0.00 351.22 751.40" xmlns="http://www.w3.org/2000/svg" xmlns:xlink="http://www.w3.org/1999/xlink">
<g id="graph0" class="graph" transform="scale(1 1) rotate(0) translate(4 747.4)">
<title>G</title>
<polygon fill="#ffffff" stroke="transparent" points="-4,4 -4,-747.4 347.2184,-747.4 347.2184,4 -4,4"/>
<!-- owner -->
<g id="node1" class="node">
<title>owner</title>
<path fill="none" stroke="#000000" stroke-width="3" d="M154.2652,-743.4C154.2652,-743.4 37.1252,-743.4 37.1252,-743.4 31.1252,-743.4 25.1252,-737.4 25.1252,-731.4 25.1252,-731.4 25.1252,-673.4 25.1252,-673.4 25.1252,-667.4 31.1252,-661.4 37.1252,-661.4 37.1252,-661.4 154.2652,-661.4 154.2652,-661.4 160.2652,-661.4 166.2652,-667.4 166.2652,-673.4 166.2652,-673.4 166.2652,-731.4 166.2652,-731.4 166.2652,-737.4 160.2652,-743.4 154.2652,-743.4"/>
<text text-anchor="middle" x="95.6952" y="-728.2" font-family="Times,serif" font-size="14.00" fill="#000000">Krajské předsednictvo</text>
<text text-anchor="middle" x="95.6952" y="-698.2" font-family="Times,serif" font-size="14.00" fill="#000000">Hlasování per rollam</text>
<text text-anchor="middle" x="95.6952" y="-668.2" font-family="Times,serif" font-size="14.00" fill="#000000">v 1.0</text>
</g>
<!-- start -->
<g id="node2" class="node">
<title>start</title>
<ellipse fill="#000000" stroke="#000000" cx="191.6952" cy="-702.4" rx="7.2" ry="7.2"/>
</g>
<!-- formulace_usneseni -->
<g id="node3" class="node">
<title>formulace_usneseni</title>
<ellipse fill="none" stroke="#000000" cx="191.6952" cy="-606.4" rx="80.6824" ry="18"/>
<text text-anchor="middle" x="191.6952" y="-602.2" font-family="Times,serif" font-size="14.00" fill="#000000">Formulace usnesení</text>
</g>
<!-- start&#45;&gt;formulace_usneseni -->
<g id="edge1" class="edge">
<title>start&#45;&gt;formulace_usneseni</title>
<path fill="none" stroke="#000000" d="M191.6952,-695.1844C191.6952,-682.5593 191.6952,-655.8215 191.6952,-634.9695"/>
<polygon fill="#000000" stroke="#000000" points="195.1953,-634.7076 191.6952,-624.7076 188.1953,-634.7076 195.1953,-634.7076"/>
</g>
<!-- urceni_lhuty -->
<g id="node4" class="node">
<title>urceni_lhuty</title>
<ellipse fill="none" stroke="#000000" cx="191.6952" cy="-533.4" rx="54.6147" ry="18"/>
<text text-anchor="middle" x="191.6952" y="-529.2" font-family="Times,serif" font-size="14.00" fill="#000000">Určení lhůty</text>
</g>
<!-- formulace_usneseni&#45;&gt;urceni_lhuty -->
<g id="edge2" class="edge">
<title>formulace_usneseni&#45;&gt;urceni_lhuty</title>
<path fill="none" stroke="#000000" d="M191.6952,-588.3551C191.6952,-580.2828 191.6952,-570.5764 191.6952,-561.5817"/>
<polygon fill="#000000" stroke="#000000" points="195.1953,-561.4903 191.6952,-551.4904 188.1953,-561.4904 195.1953,-561.4903"/>
</g>
<!-- vyhlaseni_hlasovani -->
<g id="node5" class="node">
<title>vyhlaseni_hlasovani</title>
<ellipse fill="none" stroke="#000000" cx="191.6952" cy="-460.4" rx="81.1755" ry="18"/>
<text text-anchor="middle" x="191.6952" y="-456.2" font-family="Times,serif" font-size="14.00" fill="#000000">Vyhlášení hlasování</text>
</g>
<!-- urceni_lhuty&#45;&gt;vyhlaseni_hlasovani -->
<g id="edge3" class="edge">
<title>urceni_lhuty&#45;&gt;vyhlaseni_hlasovani</title>
<path fill="none" stroke="#000000" d="M191.6952,-515.3551C191.6952,-507.2828 191.6952,-497.5764 191.6952,-488.5817"/>
<polygon fill="#000000" stroke="#000000" points="195.1953,-488.4903 191.6952,-478.4904 188.1953,-488.4904 195.1953,-488.4903"/>
</g>
<!-- sber_hlasu -->
<g id="node6" class="node">
<title>sber_hlasu</title>
<ellipse fill="none" stroke="#000000" cx="191.6952" cy="-387.4" rx="47.3907" ry="18"/>
<text text-anchor="middle" x="191.6952" y="-383.2" font-family="Times,serif" font-size="14.00" fill="#000000">Sběr hlasů</text>
</g>
<!-- vyhlaseni_hlasovani&#45;&gt;sber_hlasu -->
<g id="edge4" class="edge">
<title>vyhlaseni_hlasovani&#45;&gt;sber_hlasu</title>
<path fill="none" stroke="#000000" d="M191.6952,-442.3551C191.6952,-434.2828 191.6952,-424.5764 191.6952,-415.5817"/>
<polygon fill="#000000" stroke="#000000" points="195.1953,-415.4903 191.6952,-405.4904 188.1953,-415.4904 195.1953,-415.4903"/>
</g>
<!-- je_zrejmy_vysledek -->
<g id="node7" class="node">
<title>je_zrejmy_vysledek</title>
<polygon fill="none" stroke="#000000" points="115.6952,-332.4 -.1955,-314.4 115.6952,-296.4 231.5859,-314.4 115.6952,-332.4"/>
<text text-anchor="middle" x="115.6952" y="-310.2" font-family="Times,serif" font-size="14.00" fill="#000000">Je zřejmý výsledek?</text>
</g>
<!-- sber_hlasu&#45;&gt;je_zrejmy_vysledek -->
<g id="edge5" class="edge">
<title>sber_hlasu&#45;&gt;je_zrejmy_vysledek</title>
<path fill="none" stroke="#000000" d="M174.0682,-370.4688C163.7361,-360.5446 150.551,-347.8799 139.3271,-337.0991"/>
<polygon fill="#000000" stroke="#000000" points="141.5657,-334.3963 131.9292,-329.9932 136.7166,-339.4447 141.5657,-334.3963"/>
</g>
<!-- vyhlaseni_vysledku -->
<g id="node8" class="node">
<title>vyhlaseni_vysledku</title>
<ellipse fill="none" stroke="#000000" cx="131.6952" cy="-142.4" rx="79.2548" ry="18"/>
<text text-anchor="middle" x="131.6952" y="-138.2" font-family="Times,serif" font-size="14.00" fill="#000000">Vyhlášení výsledků</text>
</g>
<!-- je_zrejmy_vysledek&#45;&gt;vyhlaseni_vysledku -->
<g id="edge6" class="edge">
<title>je_zrejmy_vysledek&#45;&gt;vyhlaseni_vysledku</title>
<path fill="none" stroke="#000000" d="M117.102,-296.3529C118.7468,-275.6029 121.6113,-240.5238 124.4813,-210.4 125.7267,-197.3288 127.2424,-182.8595 128.5625,-170.6399"/>
<polygon fill="#000000" stroke="#000000" points="132.0556,-170.8929 129.6605,-160.5723 125.0969,-170.1339 132.0556,-170.8929"/>
<text text-anchor="middle" x="134.8021" y="-224.2" font-family="Times,serif" font-size="14.00" fill="#000000">ano</text>
</g>
<!-- je_lhuta_uplynula -->
<g id="node9" class="node">
<title>je_lhuta_uplynula</title>
<polygon fill="none" stroke="#000000" points="248.6952,-246.4 154.1488,-228.4 248.6952,-210.4 343.2416,-228.4 248.6952,-246.4"/>
<text text-anchor="middle" x="248.6952" y="-224.2" font-family="Times,serif" font-size="14.00" fill="#000000">Uplynula lhůta?</text>
</g>
<!-- je_zrejmy_vysledek&#45;&gt;je_lhuta_uplynula -->
<g id="edge7" class="edge">
<title>je_zrejmy_vysledek&#45;&gt;je_lhuta_uplynula</title>
<path fill="none" stroke="#000000" d="M138.2568,-299.8113C160.3029,-285.5559 194.0106,-263.76 218.3875,-247.9974"/>
<polygon fill="#000000" stroke="#000000" points="220.4105,-250.8574 226.9074,-242.4883 216.6095,-244.9792 220.4105,-250.8574"/>
<text text-anchor="middle" x="197.3021" y="-267.2" font-family="Times,serif" font-size="14.00" fill="#000000">ne</text>
</g>
<!-- zapis -->
<g id="node10" class="node">
<title>zapis</title>
<ellipse fill="none" stroke="#000000" cx="131.6952" cy="-69.4" rx="75.8466" ry="18"/>
<text text-anchor="middle" x="131.6952" y="-65.2" font-family="Times,serif" font-size="14.00" fill="#000000">Uvedení do zápisu</text>
</g>
<!-- vyhlaseni_vysledku&#45;&gt;zapis -->
<g id="edge10" class="edge">
<title>vyhlaseni_vysledku&#45;&gt;zapis</title>
<path fill="none" stroke="#000000" d="M131.6952,-124.3551C131.6952,-116.2828 131.6952,-106.5764 131.6952,-97.5817"/>
<polygon fill="#000000" stroke="#000000" points="135.1953,-97.4903 131.6952,-87.4904 128.1953,-97.4904 135.1953,-97.4903"/>
</g>
<!-- je_lhuta_uplynula&#45;&gt;sber_hlasu -->
<g id="edge9" class="edge">
<title>je_lhuta_uplynula&#45;&gt;sber_hlasu</title>
<path fill="none" stroke="#000000" d="M250.6738,-246.1341C252.3209,-267.5055 252.7478,-304.0723 240.6952,-332.4 235.7772,-343.9589 227.4193,-354.7449 218.9853,-363.6493"/>
<polygon fill="#000000" stroke="#000000" points="216.2568,-361.4268 211.6385,-370.9622 221.1951,-366.388 216.2568,-361.4268"/>
<text text-anchor="middle" x="257.3021" y="-310.2" font-family="Times,serif" font-size="14.00" fill="#000000">ne</text>
</g>
<!-- je_lhuta_uplynula&#45;&gt;vyhlaseni_vysledku -->
<g id="edge8" class="edge">
<title>je_lhuta_uplynula&#45;&gt;vyhlaseni_vysledku</title>
<path fill="none" stroke="#000000" d="M229.112,-214.0055C211.2733,-200.8933 184.5989,-181.2865 163.6702,-165.903"/>
<polygon fill="#000000" stroke="#000000" points="165.5155,-162.9156 155.3851,-159.8131 161.3697,-168.5558 165.5155,-162.9156"/>
<text text-anchor="middle" x="207.8021" y="-181.2" font-family="Times,serif" font-size="14.00" fill="#000000">ano</text>
</g>
<!-- end -->
<g id="node11" class="node">
<title>end</title>
<ellipse fill="#000000" stroke="#000000" cx="131.6952" cy="-7.2" rx="7.2" ry="7.2"/>
</g>
<!-- zapis&#45;&gt;end -->
<g id="edge11" class="edge">
<title>zapis&#45;&gt;end</title>
<path fill="none" stroke="#000000" d="M131.6952,-51.0744C131.6952,-42.7931 131.6952,-33.0493 131.6952,-24.8503"/>
<polygon fill="#000000" stroke="#000000" points="135.1953,-24.6024 131.6952,-14.6025 128.1953,-24.6025 135.1953,-24.6024"/>
</g>
</g>
</svg>
