<?xml version="1.0" encoding="UTF-8" standalone="no"?>
<!DOCTYPE svg PUBLIC "-//W3C//DTD SVG 1.1//EN"
 "http://www.w3.org/Graphics/SVG/1.1/DTD/svg11.dtd">
<!-- Generated by graphviz version 2.40.1 (20161225.0304)
 -->
<!-- Title: G Pages: 1 -->
<svg width="557pt" height="665pt"
 viewBox="0.00 0.00 557.35 665.40" xmlns="http://www.w3.org/2000/svg" xmlns:xlink="http://www.w3.org/1999/xlink">
<g id="graph0" class="graph" transform="scale(1 1) rotate(0) translate(4 661.4)">
<title>G</title>
<polygon fill="#ffffff" stroke="transparent" points="-4,4 -4,-661.4 553.3474,-661.4 553.3474,4 -4,4"/>
<!-- owner -->
<g id="node1" class="node">
<title>owner</title>
<path fill="none" stroke="#000000" stroke-width="3" d="M129.3547,-657.4C129.3547,-657.4 12.2147,-657.4 12.2147,-657.4 6.2147,-657.4 .2147,-651.4 .2147,-645.4 .2147,-645.4 .2147,-587.4 .2147,-587.4 .2147,-581.4 6.2147,-575.4 12.2147,-575.4 12.2147,-575.4 129.3547,-575.4 129.3547,-575.4 135.3547,-575.4 141.3547,-581.4 141.3547,-587.4 141.3547,-587.4 141.3547,-645.4 141.3547,-645.4 141.3547,-651.4 135.3547,-657.4 129.3547,-657.4"/>
<text text-anchor="middle" x="70.7847" y="-642.2" font-family="Times,serif" font-size="14.00" fill="#000000">Krajské předsednictvo</text>
<text text-anchor="middle" x="70.7847" y="-612.2" font-family="Times,serif" font-size="14.00" fill="#000000">Přijímání členů</text>
<text text-anchor="middle" x="70.7847" y="-582.2" font-family="Times,serif" font-size="14.00" fill="#000000">v 2.0</text>
</g>
<!-- start -->
<g id="node2" class="node">
<title>start</title>
<ellipse fill="#000000" stroke="#000000" cx="166.7847" cy="-616.4" rx="7.2" ry="7.2"/>
</g>
<!-- elektronicka_prihlaska -->
<g id="node3" class="node">
<title>elektronicka_prihlaska</title>
<ellipse fill="none" stroke="#000000" cx="166.7847" cy="-520.4" rx="98.5412" ry="18"/>
<text text-anchor="middle" x="166.7847" y="-516.2" font-family="Times,serif" font-size="14.00" fill="#000000">Přijetí přihlášky na webu</text>
</g>
<!-- start&#45;&gt;elektronicka_prihlaska -->
<g id="edge1" class="edge">
<title>start&#45;&gt;elektronicka_prihlaska</title>
<path fill="none" stroke="#000000" d="M166.7847,-609.1844C166.7847,-596.5593 166.7847,-569.8215 166.7847,-548.9695"/>
<polygon fill="#000000" stroke="#000000" points="170.2848,-548.7076 166.7847,-538.7076 163.2848,-548.7076 170.2848,-548.7076"/>
</g>
<!-- pohovor -->
<g id="node4" class="node">
<title>pohovor</title>
<ellipse fill="none" stroke="#000000" cx="166.7847" cy="-447.4" rx="147.743" ry="18"/>
<text text-anchor="middle" x="166.7847" y="-443.2" font-family="Times,serif" font-size="14.00" fill="#000000">Seznamovací schůzka s koordinátorem</text>
</g>
<!-- elektronicka_prihlaska&#45;&gt;pohovor -->
<g id="edge2" class="edge">
<title>elektronicka_prihlaska&#45;&gt;pohovor</title>
<path fill="none" stroke="#000000" d="M166.7847,-502.3551C166.7847,-494.2828 166.7847,-484.5764 166.7847,-475.5817"/>
<polygon fill="#000000" stroke="#000000" points="170.2848,-475.4903 166.7847,-465.4904 163.2848,-475.4904 170.2848,-475.4903"/>
</g>
<!-- doporuceni -->
<g id="node5" class="node">
<title>doporuceni</title>
<polygon fill="none" stroke="#000000" points="132.7847,-319.4 1.8119,-301.4 132.7847,-283.4 263.7575,-301.4 132.7847,-319.4"/>
<text text-anchor="middle" x="132.7847" y="-297.2" font-family="Times,serif" font-size="14.00" fill="#000000">Doporučení k ne/přijetí</text>
</g>
<!-- pohovor&#45;&gt;doporuceni -->
<g id="edge3" class="edge">
<title>pohovor&#45;&gt;doporuceni</title>
<path fill="none" stroke="#000000" d="M162.5473,-429.2042C156.6812,-404.0145 146.0372,-358.308 139.1956,-328.9292"/>
<polygon fill="#000000" stroke="#000000" points="142.5398,-327.8579 136.8629,-318.9124 135.7223,-329.4456 142.5398,-327.8579"/>
</g>
<!-- papirova_prihlaska -->
<g id="node12" class="node">
<title>papirova_prihlaska</title>
<ellipse fill="none" stroke="#000000" cx="407.7847" cy="-374.4" rx="129.9194" ry="18"/>
<text text-anchor="middle" x="407.7847" y="-370.2" font-family="Times,serif" font-size="14.00" fill="#000000">Přijetí listinné přihlášky kanceláří</text>
</g>
<!-- pohovor&#45;&gt;papirova_prihlaska -->
<g id="edge12" class="edge">
<title>pohovor&#45;&gt;papirova_prihlaska</title>
<path fill="none" stroke="#000000" d="M222.0749,-430.6523C258.3042,-419.6783 305.7876,-405.2954 343.6711,-393.8203"/>
<polygon fill="#000000" stroke="#000000" points="345.0263,-397.0669 353.5822,-390.8182 342.997,-390.3675 345.0263,-397.0669"/>
</g>
<!-- projednani -->
<g id="node6" class="node">
<title>projednani</title>
<ellipse fill="none" stroke="#000000" cx="264.7847" cy="-215.4" rx="103.8604" ry="18"/>
<text text-anchor="middle" x="264.7847" y="-211.2" font-family="Times,serif" font-size="14.00" fill="#000000">Projednání na jednání KrP</text>
</g>
<!-- doporuceni&#45;&gt;projednani -->
<g id="edge4" class="edge">
<title>doporuceni&#45;&gt;projednani</title>
<path fill="none" stroke="#000000" d="M155.7773,-286.4199C176.0815,-273.1914 206.0042,-253.6963 229.3649,-238.4765"/>
<polygon fill="#000000" stroke="#000000" points="231.4951,-241.266 237.9631,-232.8746 227.6739,-235.4009 231.4951,-241.266"/>
<text text-anchor="middle" x="238.2744" y="-254.2" font-family="Times,serif" font-size="14.00" fill="#000000">doporučuje</text>
</g>
<!-- pozvani -->
<g id="node7" class="node">
<title>pozvani</title>
<ellipse fill="none" stroke="#000000" cx="148.7847" cy="-142.4" rx="123.6211" ry="18"/>
<text text-anchor="middle" x="148.7847" y="-138.2" font-family="Times,serif" font-size="14.00" fill="#000000">Pozvání zájemce na jedníní KrP</text>
</g>
<!-- doporuceni&#45;&gt;pozvani -->
<g id="edge5" class="edge">
<title>doporuceni&#45;&gt;pozvani</title>
<path fill="none" stroke="#000000" d="M113.6242,-285.7493C91.3823,-265.5746 59.6637,-229.2918 75.5913,-197.4 82.049,-184.4697 93.1536,-173.786 104.7891,-165.3842"/>
<polygon fill="#000000" stroke="#000000" points="106.9467,-168.1513 113.2966,-159.6702 103.0437,-162.3403 106.9467,-168.1513"/>
<text text-anchor="middle" x="113.8813" y="-211.2" font-family="Times,serif" font-size="14.00" fill="#000000">nedoporučuje</text>
</g>
<!-- projednani&#45;&gt;pozvani -->
<g id="edge7" class="edge">
<title>projednani&#45;&gt;pozvani</title>
<path fill="none" stroke="#000000" d="M231.7674,-198.2847C215.3726,-188.6132 195.7628,-176.3836 179.67,-165.8325"/>
<polygon fill="#000000" stroke="#000000" points="181.4022,-162.7815 171.1341,-160.1703 177.5327,-168.6148 181.4022,-162.7815"/>
</g>
<!-- usneseni -->
<g id="node8" class="node">
<title>usneseni</title>
<ellipse fill="none" stroke="#000000" cx="389.7847" cy="-142.4" rx="99.3621" ry="18"/>
<text text-anchor="middle" x="389.7847" y="-138.2" font-family="Times,serif" font-size="14.00" fill="#000000">Usnesení KrP o ne/přijetí</text>
</g>
<!-- projednani&#45;&gt;usneseni -->
<g id="edge6" class="edge">
<title>projednani&#45;&gt;usneseni</title>
<path fill="none" stroke="#000000" d="M294.4079,-198.1C311.4078,-188.1721 332.9441,-175.5949 351.2486,-164.905"/>
<polygon fill="#000000" stroke="#000000" points="353.0706,-167.8942 359.9409,-159.8288 349.5405,-161.8495 353.0706,-167.8942"/>
</g>
<!-- pozvani&#45;&gt;projednani -->
<g id="edge8" class="edge">
<title>pozvani&#45;&gt;projednani</title>
<path fill="none" stroke="#000000" d="M182.468,-159.9085C198.8076,-169.5652 218.218,-181.68 234.1385,-192.1244"/>
<polygon fill="#000000" stroke="#000000" points="232.3152,-195.115 242.5825,-197.7287 236.1861,-189.2826 232.3152,-195.115"/>
</g>
<!-- vyznaceni -->
<g id="node9" class="node">
<title>vyznaceni</title>
<ellipse fill="none" stroke="#000000" cx="389.7847" cy="-69.4" rx="129.8761" ry="18"/>
<text text-anchor="middle" x="389.7847" y="-65.2" font-family="Times,serif" font-size="14.00" fill="#000000">Vyznačení v republikové databázi</text>
</g>
<!-- usneseni&#45;&gt;vyznaceni -->
<g id="edge9" class="edge">
<title>usneseni&#45;&gt;vyznaceni</title>
<path fill="none" stroke="#000000" d="M389.7847,-124.3551C389.7847,-116.2828 389.7847,-106.5764 389.7847,-97.5817"/>
<polygon fill="#000000" stroke="#000000" points="393.2848,-97.4903 389.7847,-87.4904 386.2848,-97.4904 393.2848,-97.4903"/>
</g>
<!-- end -->
<g id="node10" class="node">
<title>end</title>
<ellipse fill="#000000" stroke="#000000" cx="389.7847" cy="-7.2" rx="7.2" ry="7.2"/>
</g>
<!-- vyznaceni&#45;&gt;end -->
<g id="edge10" class="edge">
<title>vyznaceni&#45;&gt;end</title>
<path fill="none" stroke="#000000" d="M389.7847,-51.0744C389.7847,-42.7931 389.7847,-33.0493 389.7847,-24.8503"/>
<polygon fill="#000000" stroke="#000000" points="393.2848,-24.6024 389.7847,-14.6025 386.2848,-24.6025 393.2848,-24.6024"/>
</g>
<!-- scanovani -->
<g id="node11" class="node">
<title>scanovani</title>
<ellipse fill="none" stroke="#000000" cx="413.7847" cy="-301.4" rx="131.8574" ry="18"/>
<text text-anchor="middle" x="413.7847" y="-297.2" font-family="Times,serif" font-size="14.00" fill="#000000">Naskenování přihlášky do registru</text>
</g>
<!-- scanovani&#45;&gt;projednani -->
<g id="edge11" class="edge">
<title>scanovani&#45;&gt;projednani</title>
<path fill="none" stroke="#000000" d="M383.2727,-283.7891C360.221,-270.484 328.4153,-252.1264 303.5602,-237.7805"/>
<polygon fill="#000000" stroke="#000000" points="305.1571,-234.6611 294.7466,-232.6935 301.6579,-240.7237 305.1571,-234.6611"/>
</g>
<!-- archivace -->
<g id="node14" class="node">
<title>archivace</title>
<ellipse fill="none" stroke="#000000" cx="467.7847" cy="-215.4" rx="81.6255" ry="18"/>
<text text-anchor="middle" x="467.7847" y="-211.2" font-family="Times,serif" font-size="14.00" fill="#000000">Archivace přihlášky</text>
</g>
<!-- scanovani&#45;&gt;archivace -->
<g id="edge15" class="edge">
<title>scanovani&#45;&gt;archivace</title>
<path fill="none" stroke="#000000" d="M425.2367,-283.1616C432.7327,-271.2235 442.6542,-255.4226 451.0308,-242.0821"/>
<polygon fill="#000000" stroke="#000000" points="454.1807,-243.6473 456.5343,-233.3172 448.2525,-239.9249 454.1807,-243.6473"/>
</g>
<!-- papirova_prihlaska&#45;&gt;scanovani -->
<g id="edge14" class="edge">
<title>papirova_prihlaska&#45;&gt;scanovani</title>
<path fill="none" stroke="#000000" d="M409.2678,-356.3551C409.9313,-348.2828 410.7291,-338.5764 411.4684,-329.5817"/>
<polygon fill="#000000" stroke="#000000" points="414.9668,-329.7435 412.2978,-319.4904 407.9903,-329.17 414.9668,-329.7435"/>
</g>
<!-- posta -->
<g id="node13" class="node">
<title>posta</title>
<ellipse fill="none" stroke="#000000" cx="407.7847" cy="-447.4" rx="68.6146" ry="18"/>
<text text-anchor="middle" x="407.7847" y="-443.2" font-family="Times,serif" font-size="14.00" fill="#000000">Doručení poštou</text>
</g>
<!-- posta&#45;&gt;papirova_prihlaska -->
<g id="edge13" class="edge">
<title>posta&#45;&gt;papirova_prihlaska</title>
<path fill="none" stroke="#000000" d="M407.7847,-429.3551C407.7847,-421.2828 407.7847,-411.5764 407.7847,-402.5817"/>
<polygon fill="#000000" stroke="#000000" points="411.2848,-402.4903 407.7847,-392.4904 404.2848,-402.4904 411.2848,-402.4903"/>
</g>
</g>
</svg>
