<?xml version="1.0" encoding="UTF-8" standalone="no"?>
<!DOCTYPE svg PUBLIC "-//W3C//DTD SVG 1.1//EN"
 "http://www.w3.org/Graphics/SVG/1.1/DTD/svg11.dtd">
<!-- Generated by graphviz version 2.40.1 (20161225.0304)
 -->
<!-- Title: G Pages: 1 -->
<svg width="480pt" height="652pt"
 viewBox="0.00 0.00 480.08 652.40" xmlns="http://www.w3.org/2000/svg" xmlns:xlink="http://www.w3.org/1999/xlink">
<g id="graph0" class="graph" transform="scale(1 1) rotate(0) translate(4 648.4)">
<title>G</title>
<polygon fill="#ffffff" stroke="transparent" points="-4,4 -4,-648.4 476.0844,-648.4 476.0844,4 -4,4"/>
<!-- owner -->
<g id="node1" class="node">
<title>owner</title>
<path fill="none" stroke="#000000" stroke-width="3" d="M260.0139,-644.4C260.0139,-644.4 93.8743,-644.4 93.8743,-644.4 87.8743,-644.4 81.8743,-638.4 81.8743,-632.4 81.8743,-632.4 81.8743,-574.4 81.8743,-574.4 81.8743,-568.4 87.8743,-562.4 93.8743,-562.4 93.8743,-562.4 260.0139,-562.4 260.0139,-562.4 266.0139,-562.4 272.0139,-568.4 272.0139,-574.4 272.0139,-574.4 272.0139,-632.4 272.0139,-632.4 272.0139,-638.4 266.0139,-644.4 260.0139,-644.4"/>
<text text-anchor="middle" x="176.9441" y="-629.2" font-family="Times,serif" font-size="14.00" fill="#000000">IS</text>
<text text-anchor="middle" x="176.9441" y="-599.2" font-family="Times,serif" font-size="14.00" fill="#000000">Změna v informačním systému</text>
<text text-anchor="middle" x="176.9441" y="-569.2" font-family="Times,serif" font-size="14.00" fill="#000000">v 1.0</text>
</g>
<!-- start -->
<g id="node2" class="node">
<title>start</title>
<ellipse fill="#000000" stroke="#000000" cx="296.9441" cy="-603.4" rx="7.2" ry="7.2"/>
</g>
<!-- new_issue -->
<g id="node3" class="node">
<title>new_issue</title>
<ellipse fill="none" stroke="#000000" cx="296.9441" cy="-507.4" rx="131.8149" ry="18"/>
<text text-anchor="middle" x="296.9441" y="-503.2" font-family="Times,serif" font-size="14.00" fill="#000000">Nový požadavek na změnu (issue)</text>
</g>
<!-- start&#45;&gt;new_issue -->
<g id="edge1" class="edge">
<title>start&#45;&gt;new_issue</title>
<path fill="none" stroke="#000000" d="M296.9441,-596.1844C296.9441,-583.5593 296.9441,-556.8215 296.9441,-535.9695"/>
<polygon fill="#000000" stroke="#000000" points="300.4442,-535.7076 296.9441,-525.7076 293.4442,-535.7076 300.4442,-535.7076"/>
</g>
<!-- fork -->
<g id="node4" class="node">
<title>fork</title>
<ellipse fill="none" stroke="#000000" cx="296.9441" cy="-434.4" rx="157.8818" ry="18"/>
<text text-anchor="middle" x="296.9441" y="-430.2" font-family="Times,serif" font-size="14.00" fill="#000000">Vytvoření pracovní větve (fork &amp; branch)</text>
</g>
<!-- new_issue&#45;&gt;fork -->
<g id="edge2" class="edge">
<title>new_issue&#45;&gt;fork</title>
<path fill="none" stroke="#000000" d="M296.9441,-489.3551C296.9441,-481.2828 296.9441,-471.5764 296.9441,-462.5817"/>
<polygon fill="#000000" stroke="#000000" points="300.4442,-462.4903 296.9441,-452.4904 293.4442,-462.4904 300.4442,-462.4903"/>
</g>
<!-- commit -->
<g id="node5" class="node">
<title>commit</title>
<ellipse fill="none" stroke="#000000" cx="296.9441" cy="-361.4" rx="175.2806" ry="18"/>
<text text-anchor="middle" x="296.9441" y="-357.2" font-family="Times,serif" font-size="14.00" fill="#000000">Uložení změny do repositáře (commit &amp; push)</text>
</g>
<!-- fork&#45;&gt;commit -->
<g id="edge3" class="edge">
<title>fork&#45;&gt;commit</title>
<path fill="none" stroke="#000000" d="M296.9441,-416.3551C296.9441,-408.2828 296.9441,-398.5764 296.9441,-389.5817"/>
<polygon fill="#000000" stroke="#000000" points="300.4442,-389.4903 296.9441,-379.4904 293.4442,-389.4904 300.4442,-389.4903"/>
</g>
<!-- send_pull_request -->
<g id="node6" class="node">
<title>send_pull_request</title>
<ellipse fill="none" stroke="#000000" cx="185.9441" cy="-288.4" rx="185.8883" ry="18"/>
<text text-anchor="middle" x="185.9441" y="-284.2" font-family="Times,serif" font-size="14.00" fill="#000000">Poslání požadavku na přijetí změny (pull request)</text>
</g>
<!-- commit&#45;&gt;send_pull_request -->
<g id="edge4" class="edge">
<title>commit&#45;&gt;send_pull_request</title>
<path fill="none" stroke="#000000" d="M269.7905,-343.5422C255.2772,-333.9974 237.2289,-322.1278 221.5989,-311.8486"/>
<polygon fill="#000000" stroke="#000000" points="223.4804,-308.897 213.2022,-306.3265 219.6341,-314.7456 223.4804,-308.897"/>
</g>
<!-- is_pull_request_accepted -->
<g id="node7" class="node">
<title>is_pull_request_accepted</title>
<polygon fill="none" stroke="#000000" points="296.9441,-233.4 150.082,-215.4 296.9441,-197.4 443.8062,-215.4 296.9441,-233.4"/>
<text text-anchor="middle" x="296.9441" y="-211.2" font-family="Times,serif" font-size="14.00" fill="#000000">Je požadavek akceptován?</text>
</g>
<!-- send_pull_request&#45;&gt;is_pull_request_accepted -->
<g id="edge5" class="edge">
<title>send_pull_request&#45;&gt;is_pull_request_accepted</title>
<path fill="none" stroke="#000000" d="M213.0978,-270.5422C228.8024,-260.2139 248.6463,-247.1634 265.0864,-236.3515"/>
<polygon fill="#000000" stroke="#000000" points="267.3897,-239.0258 273.8216,-230.6067 263.5433,-233.1772 267.3897,-239.0258"/>
</g>
<!-- is_pull_request_accepted&#45;&gt;commit -->
<g id="edge9" class="edge">
<title>is_pull_request_accepted&#45;&gt;commit</title>
<path fill="none" stroke="#000000" d="M332.7144,-229.0223C350.6369,-237.8869 370.6661,-251.3852 380.9441,-270.4 388.5522,-284.4754 388.5522,-292.3246 380.9441,-306.4 373.7381,-319.7314 361.7389,-330.3512 349.033,-338.5636"/>
<polygon fill="#000000" stroke="#000000" points="346.9555,-335.728 340.174,-343.8682 350.5516,-341.7337 346.9555,-335.728"/>
<text text-anchor="middle" x="393.5511" y="-284.2" font-family="Times,serif" font-size="14.00" fill="#000000">ne</text>
</g>
<!-- merge -->
<g id="node8" class="node">
<title>merge</title>
<ellipse fill="none" stroke="#000000" cx="296.9441" cy="-142.4" rx="118.4908" ry="18"/>
<text text-anchor="middle" x="296.9441" y="-138.2" font-family="Times,serif" font-size="14.00" fill="#000000">Přijetí do hlavní větve (merge)</text>
</g>
<!-- is_pull_request_accepted&#45;&gt;merge -->
<g id="edge6" class="edge">
<title>is_pull_request_accepted&#45;&gt;merge</title>
<path fill="none" stroke="#000000" d="M296.9441,-197.3551C296.9441,-189.2828 296.9441,-179.5764 296.9441,-170.5817"/>
<polygon fill="#000000" stroke="#000000" points="300.4442,-170.4903 296.9441,-160.4904 293.4442,-170.4904 300.4442,-170.4903"/>
</g>
<!-- deploy -->
<g id="node9" class="node">
<title>deploy</title>
<ellipse fill="none" stroke="#000000" cx="296.9441" cy="-69.4" rx="146.7731" ry="18"/>
<text text-anchor="middle" x="296.9441" y="-65.2" font-family="Times,serif" font-size="14.00" fill="#000000">Nasazení změny do produkce (deploy)</text>
</g>
<!-- merge&#45;&gt;deploy -->
<g id="edge7" class="edge">
<title>merge&#45;&gt;deploy</title>
<path fill="none" stroke="#000000" d="M296.9441,-124.3551C296.9441,-116.2828 296.9441,-106.5764 296.9441,-97.5817"/>
<polygon fill="#000000" stroke="#000000" points="300.4442,-97.4903 296.9441,-87.4904 293.4442,-97.4904 300.4442,-97.4903"/>
</g>
<!-- end -->
<g id="node10" class="node">
<title>end</title>
<ellipse fill="#000000" stroke="#000000" cx="296.9441" cy="-7.2" rx="7.2" ry="7.2"/>
</g>
<!-- deploy&#45;&gt;end -->
<g id="edge8" class="edge">
<title>deploy&#45;&gt;end</title>
<path fill="none" stroke="#000000" d="M296.9441,-51.0744C296.9441,-42.7931 296.9441,-33.0493 296.9441,-24.8503"/>
<polygon fill="#000000" stroke="#000000" points="300.4442,-24.6024 296.9441,-14.6025 293.4442,-24.6025 300.4442,-24.6024"/>
</g>
</g>
</svg>
