<?xml version="1.0" encoding="UTF-8" standalone="no"?>
<!DOCTYPE svg PUBLIC "-//W3C//DTD SVG 1.1//EN"
 "http://www.w3.org/Graphics/SVG/1.1/DTD/svg11.dtd">
<!-- Generated by graphviz version 2.38.0 (20140413.2041)
 -->
<!-- Title: G Pages: 1 -->
<svg width="351pt" height="751pt"
 viewBox="0.00 0.00 351.22 751.40" xmlns="http://www.w3.org/2000/svg" xmlns:xlink="http://www.w3.org/1999/xlink">
<g id="graph0" class="graph" transform="scale(1 1) rotate(0) translate(4 747.4)">
<title>G</title>
<polygon fill="white" stroke="none" points="-4,4 -4,-747.4 347.218,-747.4 347.218,4 -4,4"/>
<!-- owner -->
<g id="node1" class="node"><title>owner</title>
<path fill="none" stroke="black" stroke-width="3" d="M192.265,-743.4C192.265,-743.4 75.1252,-743.4 75.1252,-743.4 69.1252,-743.4 63.1252,-737.4 63.1252,-731.4 63.1252,-731.4 63.1252,-673.4 63.1252,-673.4 63.1252,-667.4 69.1252,-661.4 75.1252,-661.4 75.1252,-661.4 192.265,-661.4 192.265,-661.4 198.265,-661.4 204.265,-667.4 204.265,-673.4 204.265,-673.4 204.265,-731.4 204.265,-731.4 204.265,-737.4 198.265,-743.4 192.265,-743.4"/>
<text text-anchor="middle" x="133.695" y="-728.2" font-family="Times,serif" font-size="14.00">Krajské předsednictvo</text>
<text text-anchor="middle" x="133.695" y="-698.2" font-family="Times,serif" font-size="14.00">Hlasování per rollam</text>
<text text-anchor="middle" x="133.695" y="-668.2" font-family="Times,serif" font-size="14.00">v 1.0</text>
</g>
<!-- start -->
<g id="node2" class="node"><title>start</title>
<ellipse fill="black" stroke="black" cx="229.695" cy="-702.4" rx="7.2" ry="7.2"/>
</g>
<!-- formulace_usneseni -->
<g id="node3" class="node"><title>formulace_usneseni</title>
<ellipse fill="none" stroke="black" cx="229.695" cy="-606.4" rx="80.6824" ry="18"/>
<text text-anchor="middle" x="229.695" y="-602.2" font-family="Times,serif" font-size="14.00">Formulace usnesení</text>
</g>
<!-- start&#45;&gt;formulace_usneseni -->
<g id="edge1" class="edge"><title>start&#45;&gt;formulace_usneseni</title>
<path fill="none" stroke="black" d="M229.695,-694.939C229.695,-682.718 229.695,-655.572 229.695,-634.727"/>
<polygon fill="black" stroke="black" points="233.195,-634.513 229.695,-624.513 226.195,-634.513 233.195,-634.513"/>
</g>
<!-- urceni_lhuty -->
<g id="node4" class="node"><title>urceni_lhuty</title>
<ellipse fill="none" stroke="black" cx="229.695" cy="-533.4" rx="54.6147" ry="18"/>
<text text-anchor="middle" x="229.695" y="-529.2" font-family="Times,serif" font-size="14.00">Určení lhůty</text>
</g>
<!-- formulace_usneseni&#45;&gt;urceni_lhuty -->
<g id="edge2" class="edge"><title>formulace_usneseni&#45;&gt;urceni_lhuty</title>
<path fill="none" stroke="black" d="M229.695,-588.213C229.695,-580.189 229.695,-570.447 229.695,-561.469"/>
<polygon fill="black" stroke="black" points="233.195,-561.429 229.695,-551.429 226.195,-561.429 233.195,-561.429"/>
</g>
<!-- vyhlaseni_hlasovani -->
<g id="node5" class="node"><title>vyhlaseni_hlasovani</title>
<ellipse fill="none" stroke="black" cx="229.695" cy="-460.4" rx="81.1755" ry="18"/>
<text text-anchor="middle" x="229.695" y="-456.2" font-family="Times,serif" font-size="14.00">Vyhlášení hlasování</text>
</g>
<!-- urceni_lhuty&#45;&gt;vyhlaseni_hlasovani -->
<g id="edge3" class="edge"><title>urceni_lhuty&#45;&gt;vyhlaseni_hlasovani</title>
<path fill="none" stroke="black" d="M229.695,-515.213C229.695,-507.189 229.695,-497.447 229.695,-488.469"/>
<polygon fill="black" stroke="black" points="233.195,-488.429 229.695,-478.429 226.195,-488.429 233.195,-488.429"/>
</g>
<!-- sber_hlasu -->
<g id="node6" class="node"><title>sber_hlasu</title>
<ellipse fill="none" stroke="black" cx="229.695" cy="-387.4" rx="47.3907" ry="18"/>
<text text-anchor="middle" x="229.695" y="-383.2" font-family="Times,serif" font-size="14.00">Sběr hlasů</text>
</g>
<!-- vyhlaseni_hlasovani&#45;&gt;sber_hlasu -->
<g id="edge4" class="edge"><title>vyhlaseni_hlasovani&#45;&gt;sber_hlasu</title>
<path fill="none" stroke="black" d="M229.695,-442.213C229.695,-434.189 229.695,-424.447 229.695,-415.469"/>
<polygon fill="black" stroke="black" points="233.195,-415.429 229.695,-405.429 226.195,-415.429 233.195,-415.429"/>
</g>
<!-- je_zrejmy_vysledek -->
<g id="node7" class="node"><title>je_zrejmy_vysledek</title>
<polygon fill="none" stroke="black" points="115.695,-332.4 -0.195514,-314.4 115.695,-296.4 231.586,-314.4 115.695,-332.4"/>
<text text-anchor="middle" x="115.695" y="-310.2" font-family="Times,serif" font-size="14.00">Je zřejmý výsledek?</text>
</g>
<!-- sber_hlasu&#45;&gt;je_zrejmy_vysledek -->
<g id="edge5" class="edge"><title>sber_hlasu&#45;&gt;je_zrejmy_vysledek</title>
<path fill="none" stroke="black" d="M206.074,-371.689C188.734,-360.889 165.029,-346.126 146.247,-334.428"/>
<polygon fill="black" stroke="black" points="148.078,-331.445 137.739,-329.129 144.377,-337.387 148.078,-331.445"/>
</g>
<!-- vyhlaseni_vysledku -->
<g id="node8" class="node"><title>vyhlaseni_vysledku</title>
<ellipse fill="none" stroke="black" cx="156.695" cy="-142.4" rx="79.2548" ry="18"/>
<text text-anchor="middle" x="156.695" y="-138.2" font-family="Times,serif" font-size="14.00">Vyhlášení výsledků</text>
</g>
<!-- je_zrejmy_vysledek&#45;&gt;vyhlaseni_vysledku -->
<g id="edge6" class="edge"><title>je_zrejmy_vysledek&#45;&gt;vyhlaseni_vysledku</title>
<path fill="none" stroke="black" d="M115.282,-296.302C115.206,-275.595 116.442,-239.832 124.481,-210.4 128.345,-196.253 135.125,-181.465 141.472,-169.392"/>
<polygon fill="black" stroke="black" points="144.685,-170.811 146.405,-160.356 138.541,-167.457 144.685,-170.811"/>
<text text-anchor="middle" x="134.802" y="-224.2" font-family="Times,serif" font-size="14.00">ano</text>
</g>
<!-- je_lhuta_uplynula -->
<g id="node9" class="node"><title>je_lhuta_uplynula</title>
<polygon fill="none" stroke="black" points="248.695,-246.4 154.149,-228.4 248.695,-210.4 343.242,-228.4 248.695,-246.4"/>
<text text-anchor="middle" x="248.695" y="-224.2" font-family="Times,serif" font-size="14.00">Uplynula lhůta?</text>
</g>
<!-- je_zrejmy_vysledek&#45;&gt;je_lhuta_uplynula -->
<g id="edge7" class="edge"><title>je_zrejmy_vysledek&#45;&gt;je_lhuta_uplynula</title>
<path fill="none" stroke="black" d="M137.36,-299.717C159.649,-285.64 194.517,-263.618 219.289,-247.972"/>
<polygon fill="black" stroke="black" points="221.33,-250.823 227.916,-242.524 217.592,-244.904 221.33,-250.823"/>
<text text-anchor="middle" x="196.302" y="-267.2" font-family="Times,serif" font-size="14.00">ne</text>
</g>
<!-- zapis -->
<g id="node10" class="node"><title>zapis</title>
<ellipse fill="none" stroke="black" cx="156.695" cy="-69.4" rx="75.8466" ry="18"/>
<text text-anchor="middle" x="156.695" y="-65.2" font-family="Times,serif" font-size="14.00">Uvedení do zápisu</text>
</g>
<!-- vyhlaseni_vysledku&#45;&gt;zapis -->
<g id="edge10" class="edge"><title>vyhlaseni_vysledku&#45;&gt;zapis</title>
<path fill="none" stroke="black" d="M156.695,-124.213C156.695,-116.189 156.695,-106.447 156.695,-97.4691"/>
<polygon fill="black" stroke="black" points="160.195,-97.4288 156.695,-87.4288 153.195,-97.4289 160.195,-97.4288"/>
</g>
<!-- je_lhuta_uplynula&#45;&gt;sber_hlasu -->
<g id="edge9" class="edge"><title>je_lhuta_uplynula&#45;&gt;sber_hlasu</title>
<path fill="none" stroke="black" d="M248.009,-246.601C247.041,-267.109 244.902,-302.382 240.695,-332.4 239.468,-341.157 237.693,-350.629 235.926,-359.159"/>
<polygon fill="black" stroke="black" points="232.494,-358.472 233.812,-368.984 239.337,-359.944 232.494,-358.472"/>
<text text-anchor="middle" x="251.302" y="-310.2" font-family="Times,serif" font-size="14.00">ne</text>
</g>
<!-- je_lhuta_uplynula&#45;&gt;vyhlaseni_vysledku -->
<g id="edge8" class="edge"><title>je_lhuta_uplynula&#45;&gt;vyhlaseni_vysledku</title>
<path fill="none" stroke="black" d="M233.089,-213.151C219.255,-200.52 198.783,-181.828 182.513,-166.973"/>
<polygon fill="black" stroke="black" points="184.656,-164.19 174.911,-160.032 179.936,-169.359 184.656,-164.19"/>
<text text-anchor="middle" x="217.802" y="-181.2" font-family="Times,serif" font-size="14.00">ano</text>
</g>
<!-- end -->
<g id="node11" class="node"><title>end</title>
<ellipse fill="black" stroke="black" cx="156.695" cy="-7.2" rx="7.2" ry="7.2"/>
</g>
<!-- zapis&#45;&gt;end -->
<g id="edge11" class="edge"><title>zapis&#45;&gt;end</title>
<path fill="none" stroke="black" d="M156.695,-51.3101C156.695,-42.9935 156.695,-33.036 156.695,-24.7871"/>
<polygon fill="black" stroke="black" points="160.195,-24.6139 156.695,-14.6139 153.195,-24.614 160.195,-24.6139"/>
</g>
</g>
</svg>
