<?xml version="1.0" encoding="UTF-8" standalone="no"?>
<!DOCTYPE svg PUBLIC "-//W3C//DTD SVG 1.1//EN"
 "http://www.w3.org/Graphics/SVG/1.1/DTD/svg11.dtd">
<!-- Generated by graphviz version 2.38.0 (20140413.2041)
 -->
<!-- Title: G Pages: 1 -->
<svg width="296pt" height="738pt"
 viewBox="0.00 0.00 295.89 738.40" xmlns="http://www.w3.org/2000/svg" xmlns:xlink="http://www.w3.org/1999/xlink">
<g id="graph0" class="graph" transform="scale(1 1) rotate(0) translate(4 734.4)">
<title>G</title>
<polygon fill="white" stroke="none" points="-4,4 -4,-734.4 291.892,-734.4 291.892,4 -4,4"/>
<!-- owner -->
<g id="node1" class="node"><title>owner</title>
<path fill="none" stroke="black" stroke-width="3" d="M129.355,-730.4C129.355,-730.4 12.2147,-730.4 12.2147,-730.4 6.21468,-730.4 0.214679,-724.4 0.214679,-718.4 0.214679,-718.4 0.214679,-660.4 0.214679,-660.4 0.214679,-654.4 6.21468,-648.4 12.2147,-648.4 12.2147,-648.4 129.355,-648.4 129.355,-648.4 135.355,-648.4 141.355,-654.4 141.355,-660.4 141.355,-660.4 141.355,-718.4 141.355,-718.4 141.355,-724.4 135.355,-730.4 129.355,-730.4"/>
<text text-anchor="middle" x="70.7847" y="-715.2" font-family="Times,serif" font-size="14.00">Krajské předsednictvo</text>
<text text-anchor="middle" x="70.7847" y="-685.2" font-family="Times,serif" font-size="14.00">Jednání předsednictva</text>
<text text-anchor="middle" x="70.7847" y="-655.2" font-family="Times,serif" font-size="14.00">v 1.0</text>
</g>
<!-- start -->
<g id="node2" class="node"><title>start</title>
<ellipse fill="black" stroke="black" cx="166.785" cy="-689.4" rx="7.2" ry="7.2"/>
</g>
<!-- pozvanka -->
<g id="node3" class="node"><title>pozvanka</title>
<ellipse fill="none" stroke="black" cx="166.785" cy="-593.4" rx="83.0718" ry="18"/>
<text text-anchor="middle" x="166.785" y="-589.2" font-family="Times,serif" font-size="14.00">Pozvánka na jednání</text>
</g>
<!-- start&#45;&gt;pozvanka -->
<g id="edge1" class="edge"><title>start&#45;&gt;pozvanka</title>
<path fill="none" stroke="black" d="M166.785,-681.939C166.785,-669.718 166.785,-642.572 166.785,-621.727"/>
<polygon fill="black" stroke="black" points="170.285,-621.513 166.785,-611.513 163.285,-621.513 170.285,-621.513"/>
</g>
<!-- urceni_zapisovatele -->
<g id="node4" class="node"><title>urceni_zapisovatele</title>
<ellipse fill="none" stroke="black" cx="166.785" cy="-520.4" rx="80.1633" ry="18"/>
<text text-anchor="middle" x="166.785" y="-516.2" font-family="Times,serif" font-size="14.00">Určení zapisovatele</text>
</g>
<!-- pozvanka&#45;&gt;urceni_zapisovatele -->
<g id="edge2" class="edge"><title>pozvanka&#45;&gt;urceni_zapisovatele</title>
<path fill="none" stroke="black" d="M166.785,-575.213C166.785,-567.189 166.785,-557.447 166.785,-548.469"/>
<polygon fill="black" stroke="black" points="170.285,-548.429 166.785,-538.429 163.285,-548.429 170.285,-548.429"/>
</g>
<!-- sestaveni_poradu -->
<g id="node5" class="node"><title>sestaveni_poradu</title>
<ellipse fill="none" stroke="black" cx="166.785" cy="-447.4" rx="99.0157" ry="18"/>
<text text-anchor="middle" x="166.785" y="-443.2" font-family="Times,serif" font-size="14.00">Sestavení pořadu jednání</text>
</g>
<!-- urceni_zapisovatele&#45;&gt;sestaveni_poradu -->
<g id="edge3" class="edge"><title>urceni_zapisovatele&#45;&gt;sestaveni_poradu</title>
<path fill="none" stroke="black" d="M166.785,-502.213C166.785,-494.189 166.785,-484.447 166.785,-475.469"/>
<polygon fill="black" stroke="black" points="170.285,-475.429 166.785,-465.429 163.285,-475.429 170.285,-475.429"/>
</g>
<!-- projednani_bodu -->
<g id="node6" class="node"><title>projednani_bodu</title>
<ellipse fill="none" stroke="black" cx="166.785" cy="-374.4" rx="68.1387" ry="18"/>
<text text-anchor="middle" x="166.785" y="-370.2" font-family="Times,serif" font-size="14.00">Projednání bodu</text>
</g>
<!-- sestaveni_poradu&#45;&gt;projednani_bodu -->
<g id="edge4" class="edge"><title>sestaveni_poradu&#45;&gt;projednani_bodu</title>
<path fill="none" stroke="black" d="M166.785,-429.213C166.785,-421.189 166.785,-411.447 166.785,-402.469"/>
<polygon fill="black" stroke="black" points="170.285,-402.429 166.785,-392.429 163.285,-402.429 170.285,-402.429"/>
</g>
<!-- prijeti_usneseni -->
<g id="node7" class="node"><title>prijeti_usneseni</title>
<ellipse fill="none" stroke="black" cx="91.7847" cy="-301.4" rx="64.2795" ry="18"/>
<text text-anchor="middle" x="91.7847" y="-297.2" font-family="Times,serif" font-size="14.00">Přijetí usnesení</text>
</g>
<!-- projednani_bodu&#45;&gt;prijeti_usneseni -->
<g id="edge5" class="edge"><title>projednani_bodu&#45;&gt;prijeti_usneseni</title>
<path fill="none" stroke="black" d="M149.39,-356.933C139.64,-347.703 127.315,-336.036 116.571,-325.864"/>
<polygon fill="black" stroke="black" points="118.754,-323.111 109.085,-318.778 113.941,-328.195 118.754,-323.111"/>
</g>
<!-- je_dalsi_bod -->
<g id="node8" class="node"><title>je_dalsi_bod</title>
<polygon fill="none" stroke="black" points="160.785,-246.4 39.9518,-228.4 160.785,-210.4 281.618,-228.4 160.785,-246.4"/>
<text text-anchor="middle" x="160.785" y="-224.2" font-family="Times,serif" font-size="14.00">Další bod na pořadu?</text>
</g>
<!-- prijeti_usneseni&#45;&gt;je_dalsi_bod -->
<g id="edge6" class="edge"><title>prijeti_usneseni&#45;&gt;je_dalsi_bod</title>
<path fill="none" stroke="black" d="M107.788,-283.933C117.142,-274.307 129.073,-262.031 139.244,-251.565"/>
<polygon fill="black" stroke="black" points="141.819,-253.938 146.278,-244.327 136.799,-249.059 141.819,-253.938"/>
</g>
<!-- je_dalsi_bod&#45;&gt;projednani_bodu -->
<g id="edge7" class="edge"><title>je_dalsi_bod&#45;&gt;projednani_bodu</title>
<path fill="none" stroke="black" d="M162.271,-246.411C163.143,-257.036 164.188,-271.005 164.785,-283.4 165.797,-304.442 166.298,-328.276 166.545,-346.128"/>
<polygon fill="black" stroke="black" points="163.045,-346.18 166.666,-356.137 170.045,-346.096 163.045,-346.18"/>
<text text-anchor="middle" x="175.892" y="-297.2" font-family="Times,serif" font-size="14.00">ano</text>
</g>
<!-- zaver -->
<g id="node9" class="node"><title>zaver</title>
<ellipse fill="none" stroke="black" cx="160.785" cy="-142.4" rx="58.9322" ry="18"/>
<text text-anchor="middle" x="160.785" y="-138.2" font-family="Times,serif" font-size="14.00">Závěr jednání</text>
</g>
<!-- je_dalsi_bod&#45;&gt;zaver -->
<g id="edge8" class="edge"><title>je_dalsi_bod&#45;&gt;zaver</title>
<path fill="none" stroke="black" d="M160.785,-209.995C160.785,-198.657 160.785,-183.627 160.785,-170.715"/>
<polygon fill="black" stroke="black" points="164.285,-170.495 160.785,-160.495 157.285,-170.495 164.285,-170.495"/>
<text text-anchor="middle" x="224.338" y="-181.2" font-family="Times,serif" font-size="14.00">ne &#45; program vyčerpán</text>
</g>
<!-- zverejneni_zapisu -->
<g id="node10" class="node"><title>zverejneni_zapisu</title>
<ellipse fill="none" stroke="black" cx="160.785" cy="-69.4" rx="73.4236" ry="18"/>
<text text-anchor="middle" x="160.785" y="-65.2" font-family="Times,serif" font-size="14.00">Zveřejnění zápisu</text>
</g>
<!-- zaver&#45;&gt;zverejneni_zapisu -->
<g id="edge9" class="edge"><title>zaver&#45;&gt;zverejneni_zapisu</title>
<path fill="none" stroke="black" d="M160.785,-124.213C160.785,-116.189 160.785,-106.447 160.785,-97.4691"/>
<polygon fill="black" stroke="black" points="164.285,-97.4288 160.785,-87.4288 157.285,-97.4289 164.285,-97.4288"/>
</g>
<!-- end -->
<g id="node11" class="node"><title>end</title>
<ellipse fill="black" stroke="black" cx="160.785" cy="-7.2" rx="7.2" ry="7.2"/>
</g>
<!-- zverejneni_zapisu&#45;&gt;end -->
<g id="edge10" class="edge"><title>zverejneni_zapisu&#45;&gt;end</title>
<path fill="none" stroke="black" d="M160.785,-51.3101C160.785,-42.9935 160.785,-33.036 160.785,-24.7871"/>
<polygon fill="black" stroke="black" points="164.285,-24.6139 160.785,-14.6139 157.285,-24.614 164.285,-24.6139"/>
</g>
</g>
</svg>
