<?xml version="1.0" encoding="UTF-8" standalone="no"?>
<!DOCTYPE svg PUBLIC "-//W3C//DTD SVG 1.1//EN"
 "http://www.w3.org/Graphics/SVG/1.1/DTD/svg11.dtd">
<!-- Generated by graphviz version 2.38.0 (20140413.2041)
 -->
<!-- Title: G Pages: 1 -->
<svg width="249pt" height="572pt"
 viewBox="0.00 0.00 248.73 572.40" xmlns="http://www.w3.org/2000/svg" xmlns:xlink="http://www.w3.org/1999/xlink">
<g id="graph0" class="graph" transform="scale(1 1) rotate(0) translate(4 568.4)">
<title>G</title>
<polygon fill="white" stroke="none" points="-4,4 -4,-568.4 244.73,-568.4 244.73,4 -4,4"/>
<!-- owner -->
<g id="node1" class="node"><title>owner</title>
<path fill="none" stroke="black" stroke-width="3" d="M129.355,-564.4C129.355,-564.4 12.2147,-564.4 12.2147,-564.4 6.21468,-564.4 0.214679,-558.4 0.214679,-552.4 0.214679,-552.4 0.214679,-494.4 0.214679,-494.4 0.214679,-488.4 6.21468,-482.4 12.2147,-482.4 12.2147,-482.4 129.355,-482.4 129.355,-482.4 135.355,-482.4 141.355,-488.4 141.355,-494.4 141.355,-494.4 141.355,-552.4 141.355,-552.4 141.355,-558.4 135.355,-564.4 129.355,-564.4"/>
<text text-anchor="middle" x="70.7847" y="-549.2" font-family="Times,serif" font-size="14.00">Krajské předsednictvo</text>
<text text-anchor="middle" x="70.7847" y="-519.2" font-family="Times,serif" font-size="14.00">Jednání předsednictva</text>
<text text-anchor="middle" x="70.7847" y="-489.2" font-family="Times,serif" font-size="14.00">v 1.0</text>
</g>
<!-- start -->
<g id="node2" class="node"><title>start</title>
<ellipse fill="black" stroke="black" cx="166.785" cy="-523.4" rx="7.2" ry="7.2"/>
</g>
<!-- pozvanka -->
<g id="node3" class="node"><title>pozvanka</title>
<ellipse fill="none" stroke="black" cx="166.785" cy="-428.4" rx="43.9819" ry="18"/>
<text text-anchor="middle" x="166.785" y="-424.2" font-family="Times,serif" font-size="14.00">pozvanka</text>
</g>
<!-- start&#45;&gt;pozvanka -->
<g id="edge1" class="edge"><title>start&#45;&gt;pozvanka</title>
<path fill="none" stroke="black" d="M166.785,-516.008C166.785,-503.986 166.785,-477.37 166.785,-456.795"/>
<polygon fill="black" stroke="black" points="170.285,-456.695 166.785,-446.695 163.285,-456.695 170.285,-456.695"/>
</g>
<!-- sestaveni_poradu -->
<g id="node4" class="node"><title>sestaveni_poradu</title>
<ellipse fill="none" stroke="black" cx="166.785" cy="-356.4" rx="71.5031" ry="18"/>
<text text-anchor="middle" x="166.785" y="-352.2" font-family="Times,serif" font-size="14.00">sestaveni_poradu</text>
</g>
<!-- pozvanka&#45;&gt;sestaveni_poradu -->
<g id="edge2" class="edge"><title>pozvanka&#45;&gt;sestaveni_poradu</title>
<path fill="none" stroke="black" d="M166.785,-410.097C166.785,-402.383 166.785,-393.112 166.785,-384.512"/>
<polygon fill="black" stroke="black" points="170.285,-384.504 166.785,-374.504 163.285,-384.504 170.285,-384.504"/>
</g>
<!-- projednani_bodu -->
<g id="node5" class="node"><title>projednani_bodu</title>
<ellipse fill="none" stroke="black" cx="166.785" cy="-284.4" rx="70.0668" ry="18"/>
<text text-anchor="middle" x="166.785" y="-280.2" font-family="Times,serif" font-size="14.00">projednani_bodu</text>
</g>
<!-- sestaveni_poradu&#45;&gt;projednani_bodu -->
<g id="edge3" class="edge"><title>sestaveni_poradu&#45;&gt;projednani_bodu</title>
<path fill="none" stroke="black" d="M166.785,-338.097C166.785,-330.383 166.785,-321.112 166.785,-312.512"/>
<polygon fill="black" stroke="black" points="170.285,-312.504 166.785,-302.504 163.285,-312.504 170.285,-312.504"/>
</g>
<!-- prijeti_usneseni -->
<g id="node6" class="node"><title>prijeti_usneseni</title>
<ellipse fill="none" stroke="black" cx="166.785" cy="-212.4" rx="66.208" ry="18"/>
<text text-anchor="middle" x="166.785" y="-208.2" font-family="Times,serif" font-size="14.00">prijeti_usneseni</text>
</g>
<!-- projednani_bodu&#45;&gt;prijeti_usneseni -->
<g id="edge4" class="edge"><title>projednani_bodu&#45;&gt;prijeti_usneseni</title>
<path fill="none" stroke="black" d="M160.906,-266.455C160.088,-258.746 159.846,-249.427 160.18,-240.764"/>
<polygon fill="black" stroke="black" points="163.679,-240.891 160.872,-230.675 156.695,-240.412 163.679,-240.891"/>
</g>
<!-- prijeti_usneseni&#45;&gt;projednani_bodu -->
<g id="edge8" class="edge"><title>prijeti_usneseni&#45;&gt;projednani_bodu</title>
<path fill="none" stroke="black" d="M172.697,-230.675C173.499,-238.43 173.725,-247.762 173.375,-256.405"/>
<polygon fill="black" stroke="black" points="169.879,-256.232 172.663,-266.455 176.861,-256.727 169.879,-256.232"/>
</g>
<!-- zaver -->
<g id="node7" class="node"><title>zaver</title>
<ellipse fill="none" stroke="black" cx="166.785" cy="-140.4" rx="29.5" ry="18"/>
<text text-anchor="middle" x="166.785" y="-136.2" font-family="Times,serif" font-size="14.00">zaver</text>
</g>
<!-- prijeti_usneseni&#45;&gt;zaver -->
<g id="edge5" class="edge"><title>prijeti_usneseni&#45;&gt;zaver</title>
<path fill="none" stroke="black" d="M166.785,-194.097C166.785,-186.383 166.785,-177.112 166.785,-168.512"/>
<polygon fill="black" stroke="black" points="170.285,-168.504 166.785,-158.504 163.285,-168.504 170.285,-168.504"/>
</g>
<!-- zverejneni_zapisu -->
<g id="node8" class="node"><title>zverejneni_zapisu</title>
<ellipse fill="none" stroke="black" cx="166.785" cy="-68.4" rx="73.8912" ry="18"/>
<text text-anchor="middle" x="166.785" y="-64.2" font-family="Times,serif" font-size="14.00">zverejneni_zapisu</text>
</g>
<!-- zaver&#45;&gt;zverejneni_zapisu -->
<g id="edge6" class="edge"><title>zaver&#45;&gt;zverejneni_zapisu</title>
<path fill="none" stroke="black" d="M166.785,-122.097C166.785,-114.383 166.785,-105.112 166.785,-96.5124"/>
<polygon fill="black" stroke="black" points="170.285,-96.5043 166.785,-86.5043 163.285,-96.5044 170.285,-96.5043"/>
</g>
<!-- end -->
<g id="node9" class="node"><title>end</title>
<ellipse fill="black" stroke="black" cx="166.785" cy="-7.2" rx="7.2" ry="7.2"/>
</g>
<!-- zverejneni_zapisu&#45;&gt;end -->
<g id="edge7" class="edge"><title>zverejneni_zapisu&#45;&gt;end</title>
<path fill="none" stroke="black" d="M166.785,-50.2769C166.785,-42.2008 166.785,-32.6079 166.785,-24.6226"/>
<polygon fill="black" stroke="black" points="170.285,-24.4375 166.785,-14.4375 163.285,-24.4375 170.285,-24.4375"/>
</g>
</g>
</svg>
