<?xml version="1.0" encoding="UTF-8" standalone="no"?>
<!DOCTYPE svg PUBLIC "-//W3C//DTD SVG 1.1//EN"
 "http://www.w3.org/Graphics/SVG/1.1/DTD/svg11.dtd">
<!-- Generated by graphviz version 2.40.1 (20161225.0304)
 -->
<!-- Title: G Pages: 1 -->
<svg width="513pt" height="450pt"
 viewBox="0.00 0.00 513.09 450.00" xmlns="http://www.w3.org/2000/svg" xmlns:xlink="http://www.w3.org/1999/xlink">
<g id="graph0" class="graph" transform="scale(1 1) rotate(0) translate(4 446)">
<title>G</title>
<polygon fill="#ffffff" stroke="transparent" points="-4,4 -4,-446 509.0854,-446 509.0854,4 -4,4"/>
<!-- owner -->
<g id="node1" class="node">
<title>owner</title>
<path fill="none" stroke="#00bfff" stroke-width="3" d="M102.553,-442C102.553,-442 18.3659,-442 18.3659,-442 12.3659,-442 6.3659,-436 6.3659,-430 6.3659,-430 6.3659,-372 6.3659,-372 6.3659,-366 12.3659,-360 18.3659,-360 18.3659,-360 102.553,-360 102.553,-360 108.553,-360 114.553,-366 114.553,-372 114.553,-372 114.553,-430 114.553,-430 114.553,-436 108.553,-442 102.553,-442"/>
<text text-anchor="middle" x="60.4595" y="-426.8" font-family="Helvetica-Outline" font-size="14.00" fill="#000000">Registr</text>
<text text-anchor="middle" x="60.4595" y="-396.8" font-family="Helvetica-Outline" font-size="14.00" fill="#000000">Přijímání členů</text>
<text text-anchor="middle" x="60.4595" y="-366.8" font-family="Helvetica-Outline" font-size="14.00" fill="#000000">v 2.0</text>
</g>
<!-- start -->
<g id="node2" class="node">
<title>start</title>
<ellipse fill="#00bfff" stroke="#00bfff" cx="143.4595" cy="-401" rx="10.8" ry="10.8"/>
</g>
<!-- zadost_o_clenstvi -->
<g id="node3" class="node">
<title>zadost_o_clenstvi</title>
<polygon fill="#00bfff" stroke="#00bfff" points="274.0894,-324 12.8296,-324 12.8296,-288 274.0894,-288 274.0894,-324"/>
<text text-anchor="middle" x="143.4595" y="-301.8" font-family="Helvetica-Outline" font-size="14.00" fill="#000000">Na webu vyplněná přihláška ke členství</text>
</g>
<!-- start&#45;&gt;zadost_o_clenstvi -->
<g id="edge1" class="edge">
<title>start&#45;&gt;zadost_o_clenstvi</title>
<path fill="none" stroke="#000000" d="M143.4595,-390.1023C143.4595,-376.5949 143.4595,-353.0678 143.4595,-334.3263"/>
<polygon fill="#000000" stroke="#000000" points="146.9596,-334.2291 143.4595,-324.2291 139.9596,-334.2292 146.9596,-334.2291"/>
</g>
<!-- platba_prispevku_zajemce -->
<g id="node4" class="node">
<title>platba_prispevku_zajemce</title>
<polygon fill="#00bfff" stroke="#00bfff" points="228.5142,-252 58.4048,-252 58.4048,-216 228.5142,-216 228.5142,-252"/>
<text text-anchor="middle" x="143.4595" y="-229.8" font-family="Helvetica-Outline" font-size="14.00" fill="#000000">Přijatý členský příspěvek</text>
</g>
<!-- zadost_o_clenstvi&#45;&gt;platba_prispevku_zajemce -->
<g id="edge2" class="edge">
<title>zadost_o_clenstvi&#45;&gt;platba_prispevku_zajemce</title>
<path fill="none" stroke="#000000" d="M143.4595,-287.8314C143.4595,-280.131 143.4595,-270.9743 143.4595,-262.4166"/>
<polygon fill="#000000" stroke="#000000" points="146.9596,-262.4132 143.4595,-252.4133 139.9596,-262.4133 146.9596,-262.4132"/>
</g>
<!-- priznivec_zajemce -->
<g id="node5" class="node">
<title>priznivec_zajemce</title>
<polygon fill="#ee8262" stroke="#ee8262" points="180.033,-180 106.886,-180 106.886,-144 180.033,-144 180.033,-180"/>
<text text-anchor="middle" x="143.4595" y="-157.8" font-family="Helvetica-Outline" font-size="14.00" fill="#000000">Příznivec</text>
</g>
<!-- platba_prispevku_zajemce&#45;&gt;priznivec_zajemce -->
<g id="edge3" class="edge">
<title>platba_prispevku_zajemce&#45;&gt;priznivec_zajemce</title>
<path fill="none" stroke="#000000" d="M143.4595,-215.8314C143.4595,-208.131 143.4595,-198.9743 143.4595,-190.4166"/>
<polygon fill="#000000" stroke="#000000" points="146.9596,-190.4132 143.4595,-180.4133 139.9596,-190.4133 146.9596,-190.4132"/>
</g>
<!-- prijeti -->
<g id="node6" class="node">
<title>prijeti</title>
<polygon fill="#00bfff" stroke="#00bfff" points="144.8784,-108 .0405,-108 .0405,-72 144.8784,-72 144.8784,-108"/>
<text text-anchor="middle" x="72.4595" y="-85.8" font-family="Helvetica-Outline" font-size="14.00" fill="#000000">KrP schválil za člena</text>
</g>
<!-- priznivec_zajemce&#45;&gt;prijeti -->
<g id="edge4" class="edge">
<title>priznivec_zajemce&#45;&gt;prijeti</title>
<path fill="none" stroke="#000000" d="M125.5432,-143.8314C117.1153,-135.2848 106.9185,-124.9443 97.7235,-115.6198"/>
<polygon fill="#000000" stroke="#000000" points="100.1306,-113.0761 90.617,-108.4133 95.1463,-117.9912 100.1306,-113.0761"/>
</g>
<!-- neprijeti_zajemce -->
<g id="node8" class="node">
<title>neprijeti_zajemce</title>
<polygon fill="#00bfff" stroke="#00bfff" points="267.9175,-108 163.0014,-108 163.0014,-72 267.9175,-72 267.9175,-108"/>
<text text-anchor="middle" x="215.4595" y="-85.8" font-family="Helvetica-Outline" font-size="14.00" fill="#000000">KrP neschválil</text>
</g>
<!-- priznivec_zajemce&#45;&gt;neprijeti_zajemce -->
<g id="edge6" class="edge">
<title>priznivec_zajemce&#45;&gt;neprijeti_zajemce</title>
<path fill="none" stroke="#000000" stroke-dasharray="1,5" d="M161.6281,-143.8314C170.1747,-135.2848 180.5152,-124.9443 189.8396,-115.6198"/>
<polygon fill="#000000" stroke="#000000" points="192.45,-117.9592 197.0462,-108.4133 187.5002,-113.0095 192.45,-117.9592"/>
</g>
<!-- clen -->
<g id="node7" class="node">
<title>clen</title>
<polygon fill="#ee8262" stroke="#ee8262" points="115.5005,-36 29.4184,-36 29.4184,0 115.5005,0 115.5005,-36"/>
<text text-anchor="middle" x="72.4595" y="-13.8" font-family="Helvetica-Outline" font-size="14.00" fill="#000000">Řádný člen</text>
</g>
<!-- prijeti&#45;&gt;clen -->
<g id="edge5" class="edge">
<title>prijeti&#45;&gt;clen</title>
<path fill="none" stroke="#000000" d="M72.4595,-71.8314C72.4595,-64.131 72.4595,-54.9743 72.4595,-46.4166"/>
<polygon fill="#000000" stroke="#000000" points="75.9596,-46.4132 72.4595,-36.4133 68.9596,-46.4133 75.9596,-46.4132"/>
</g>
<!-- nezaplaceny_priznivec -->
<g id="node9" class="node">
<title>nezaplaceny_priznivec</title>
<polygon fill="#ee8262" stroke="#ee8262" points="291.8072,-36 135.1117,-36 135.1117,0 291.8072,0 291.8072,-36"/>
<text text-anchor="middle" x="213.4595" y="-13.8" font-family="Helvetica-Outline" font-size="14.00" fill="#000000">Nezaplacený příznivec</text>
</g>
<!-- neprijeti_zajemce&#45;&gt;nezaplaceny_priznivec -->
<g id="edge7" class="edge">
<title>neprijeti_zajemce&#45;&gt;nezaplaceny_priznivec</title>
<path fill="none" stroke="#000000" d="M214.9548,-71.8314C214.7409,-64.131 214.4865,-54.9743 214.2488,-46.4166"/>
<polygon fill="#000000" stroke="#000000" points="217.7474,-46.3122 213.971,-36.4133 210.7501,-46.5066 217.7474,-46.3122"/>
</g>
<!-- vraceni_prispevku -->
<g id="node10" class="node">
<title>vraceni_prispevku</title>
<polygon fill="#00bfff" stroke="#00bfff" points="505.2116,-36 309.7074,-36 309.7074,0 505.2116,0 505.2116,-36"/>
<text text-anchor="middle" x="407.4595" y="-13.8" font-family="Helvetica-Outline" font-size="14.00" fill="#000000">Vrácení členského příspěvku</text>
</g>
<!-- neprijeti_zajemce&#45;&gt;vraceni_prispevku -->
<g id="edge8" class="edge">
<title>neprijeti_zajemce&#45;&gt;vraceni_prispevku</title>
<path fill="none" stroke="#000000" d="M263.9092,-71.8314C290.0446,-62.0306 322.4704,-49.8709 349.8877,-39.5894"/>
<polygon fill="#000000" stroke="#000000" points="351.2238,-42.8264 359.3582,-36.038 348.7659,-36.2721 351.2238,-42.8264"/>
</g>
</g>
</svg>
