<?xml version="1.0" encoding="UTF-8" standalone="no"?>
<!DOCTYPE svg PUBLIC "-//W3C//DTD SVG 1.1//EN"
 "http://www.w3.org/Graphics/SVG/1.1/DTD/svg11.dtd">
<!-- Generated by graphviz version 2.38.0 (20140413.2041)
 -->
<!-- Title: G Pages: 1 -->
<svg width="535pt" height="652pt"
 viewBox="0.00 0.00 535.08 652.40" xmlns="http://www.w3.org/2000/svg" xmlns:xlink="http://www.w3.org/1999/xlink">
<g id="graph0" class="graph" transform="scale(1 1) rotate(0) translate(4 648.4)">
<title>G</title>
<polygon fill="white" stroke="none" points="-4,4 -4,-648.4 531.084,-648.4 531.084,4 -4,4"/>
<!-- owner -->
<g id="node1" class="node"><title>owner</title>
<path fill="none" stroke="black" stroke-width="3" d="M315.014,-644.4C315.014,-644.4 148.874,-644.4 148.874,-644.4 142.874,-644.4 136.874,-638.4 136.874,-632.4 136.874,-632.4 136.874,-574.4 136.874,-574.4 136.874,-568.4 142.874,-562.4 148.874,-562.4 148.874,-562.4 315.014,-562.4 315.014,-562.4 321.014,-562.4 327.014,-568.4 327.014,-574.4 327.014,-574.4 327.014,-632.4 327.014,-632.4 327.014,-638.4 321.014,-644.4 315.014,-644.4"/>
<text text-anchor="middle" x="231.944" y="-629.2" font-family="Times,serif" font-size="14.00">IS</text>
<text text-anchor="middle" x="231.944" y="-599.2" font-family="Times,serif" font-size="14.00">Změna v informačním systému</text>
<text text-anchor="middle" x="231.944" y="-569.2" font-family="Times,serif" font-size="14.00">v 1.0</text>
</g>
<!-- start -->
<g id="node2" class="node"><title>start</title>
<ellipse fill="black" stroke="black" cx="351.944" cy="-603.4" rx="7.2" ry="7.2"/>
</g>
<!-- new_issue -->
<g id="node3" class="node"><title>new_issue</title>
<ellipse fill="none" stroke="black" cx="351.944" cy="-507.4" rx="131.815" ry="18"/>
<text text-anchor="middle" x="351.944" y="-503.2" font-family="Times,serif" font-size="14.00">Nový požadavek na změnu (issue)</text>
</g>
<!-- start&#45;&gt;new_issue -->
<g id="edge1" class="edge"><title>start&#45;&gt;new_issue</title>
<path fill="none" stroke="black" d="M351.944,-595.939C351.944,-583.718 351.944,-556.572 351.944,-535.727"/>
<polygon fill="black" stroke="black" points="355.444,-535.513 351.944,-525.513 348.444,-535.513 355.444,-535.513"/>
</g>
<!-- fork -->
<g id="node4" class="node"><title>fork</title>
<ellipse fill="none" stroke="black" cx="351.944" cy="-434.4" rx="157.882" ry="18"/>
<text text-anchor="middle" x="351.944" y="-430.2" font-family="Times,serif" font-size="14.00">Vytvoření pracovní větve (fork &amp; branch)</text>
</g>
<!-- new_issue&#45;&gt;fork -->
<g id="edge2" class="edge"><title>new_issue&#45;&gt;fork</title>
<path fill="none" stroke="black" d="M351.944,-489.213C351.944,-481.189 351.944,-471.447 351.944,-462.469"/>
<polygon fill="black" stroke="black" points="355.444,-462.429 351.944,-452.429 348.444,-462.429 355.444,-462.429"/>
</g>
<!-- commit -->
<g id="node5" class="node"><title>commit</title>
<ellipse fill="none" stroke="black" cx="351.944" cy="-361.4" rx="175.281" ry="18"/>
<text text-anchor="middle" x="351.944" y="-357.2" font-family="Times,serif" font-size="14.00">Uložení změny do repositáře (commit &amp; push)</text>
</g>
<!-- fork&#45;&gt;commit -->
<g id="edge3" class="edge"><title>fork&#45;&gt;commit</title>
<path fill="none" stroke="black" d="M351.944,-416.213C351.944,-408.189 351.944,-398.447 351.944,-389.469"/>
<polygon fill="black" stroke="black" points="355.444,-389.429 351.944,-379.429 348.444,-389.429 355.444,-389.429"/>
</g>
<!-- send_pull_request -->
<g id="node6" class="node"><title>send_pull_request</title>
<ellipse fill="none" stroke="black" cx="185.944" cy="-288.4" rx="185.888" ry="18"/>
<text text-anchor="middle" x="185.944" y="-284.2" font-family="Times,serif" font-size="14.00">Poslání požadavku na přijetí změny (pull request)</text>
</g>
<!-- commit&#45;&gt;send_pull_request -->
<g id="edge4" class="edge"><title>commit&#45;&gt;send_pull_request</title>
<path fill="none" stroke="black" d="M313.024,-343.754C289.487,-333.686 259.286,-320.769 234.233,-310.054"/>
<polygon fill="black" stroke="black" points="235.478,-306.779 224.907,-306.065 232.725,-313.215 235.478,-306.779"/>
</g>
<!-- is_pull_request_accepted -->
<g id="node7" class="node"><title>is_pull_request_accepted</title>
<polygon fill="none" stroke="black" points="345.944,-233.4 199.082,-215.4 345.944,-197.4 492.806,-215.4 345.944,-233.4"/>
<text text-anchor="middle" x="345.944" y="-211.2" font-family="Times,serif" font-size="14.00">Je požadavek akceptován?</text>
</g>
<!-- send_pull_request&#45;&gt;is_pull_request_accepted -->
<g id="edge5" class="edge"><title>send_pull_request&#45;&gt;is_pull_request_accepted</title>
<path fill="none" stroke="black" d="M223.457,-270.754C248.437,-259.669 281.203,-245.129 306.56,-233.877"/>
<polygon fill="black" stroke="black" points="308.163,-236.995 315.884,-229.739 305.324,-230.596 308.163,-236.995"/>
</g>
<!-- is_pull_request_accepted&#45;&gt;commit -->
<g id="edge9" class="edge"><title>is_pull_request_accepted&#45;&gt;commit</title>
<path fill="none" stroke="black" d="M359.68,-232.181C367.587,-242.343 376.762,-256.258 380.944,-270.4 385.482,-285.743 384.847,-290.883 380.944,-306.4 378.504,-316.101 373.946,-325.958 369.154,-334.549"/>
<polygon fill="black" stroke="black" points="366.05,-332.922 363.952,-343.307 372.068,-336.497 366.05,-332.922"/>
<text text-anchor="middle" x="390.551" y="-284.2" font-family="Times,serif" font-size="14.00">ne</text>
</g>
<!-- merge -->
<g id="node8" class="node"><title>merge</title>
<ellipse fill="none" stroke="black" cx="345.944" cy="-142.4" rx="118.491" ry="18"/>
<text text-anchor="middle" x="345.944" y="-138.2" font-family="Times,serif" font-size="14.00">Přijetí do hlavní větve (merge)</text>
</g>
<!-- is_pull_request_accepted&#45;&gt;merge -->
<g id="edge6" class="edge"><title>is_pull_request_accepted&#45;&gt;merge</title>
<path fill="none" stroke="black" d="M345.944,-197.213C345.944,-189.189 345.944,-179.447 345.944,-170.469"/>
<polygon fill="black" stroke="black" points="349.444,-170.429 345.944,-160.429 342.444,-170.429 349.444,-170.429"/>
</g>
<!-- deploy -->
<g id="node9" class="node"><title>deploy</title>
<ellipse fill="none" stroke="black" cx="345.944" cy="-69.4" rx="146.773" ry="18"/>
<text text-anchor="middle" x="345.944" y="-65.2" font-family="Times,serif" font-size="14.00">Nasazení změny do produkce (deploy)</text>
</g>
<!-- merge&#45;&gt;deploy -->
<g id="edge7" class="edge"><title>merge&#45;&gt;deploy</title>
<path fill="none" stroke="black" d="M345.944,-124.213C345.944,-116.189 345.944,-106.447 345.944,-97.4691"/>
<polygon fill="black" stroke="black" points="349.444,-97.4288 345.944,-87.4288 342.444,-97.4289 349.444,-97.4288"/>
</g>
<!-- end -->
<g id="node10" class="node"><title>end</title>
<ellipse fill="black" stroke="black" cx="345.944" cy="-7.2" rx="7.2" ry="7.2"/>
</g>
<!-- deploy&#45;&gt;end -->
<g id="edge8" class="edge"><title>deploy&#45;&gt;end</title>
<path fill="none" stroke="black" d="M345.944,-51.3101C345.944,-42.9935 345.944,-33.036 345.944,-24.7871"/>
<polygon fill="black" stroke="black" points="349.444,-24.6139 345.944,-14.6139 342.444,-24.614 349.444,-24.6139"/>
</g>
</g>
</svg>
